<?xml version="1.0" encoding="UTF-8" standalone="no"?>
<!-- Created with Inkscape (http://www.inkscape.org/) -->

<svg
   xmlns:dc="http://purl.org/dc/elements/1.1/"
   xmlns:cc="http://creativecommons.org/ns#"
   xmlns:rdf="http://www.w3.org/1999/02/22-rdf-syntax-ns#"
   xmlns:svg="http://www.w3.org/2000/svg"
   xmlns="http://www.w3.org/2000/svg"
   xmlns:sodipodi="http://sodipodi.sourceforge.net/DTD/sodipodi-0.dtd"
   xmlns:inkscape="http://www.inkscape.org/namespaces/inkscape"
   width="49.388931mm"
   height="49.388935mm"
   viewBox="0 0 175.00015 175.00016"
   id="svg2"
   version="1.1"
   inkscape:version="0.91 r13725"
   sodipodi:docname="0ori.svg">
  <defs
     id="defs4" />
  <sodipodi:namedview
     id="base"
     pagecolor="#ffffff"
     bordercolor="#666666"
     borderopacity="1.0"
     inkscape:pageopacity="0.0"
     inkscape:pageshadow="2"
     inkscape:zoom="2.8"
     inkscape:cx="49.989461"
     inkscape:cy="84.843934"
     inkscape:document-units="px"
     inkscape:current-layer="layer1"
     showgrid="false"
     fit-margin-top="0"
     fit-margin-left="0"
     fit-margin-right="0"
     fit-margin-bottom="0"
     inkscape:window-width="1920"
     inkscape:window-height="1017"
     inkscape:window-x="-8"
     inkscape:window-y="-8"
     inkscape:window-maximized="1" />
  <metadata
     id="metadata7">
    <rdf:RDF>
      <cc:Work
         rdf:about="">
        <dc:format>image/svg+xml</dc:format>
        <dc:type
           rdf:resource="http://purl.org/dc/dcmitype/StillImage" />
        <dc:title></dc:title>
      </cc:Work>
    </rdf:RDF>
  </metadata>
  <g
     inkscape:label="Layer 1"
     inkscape:groupmode="layer"
     id="layer1"
     transform="translate(-144.64285,-424.14792)">
    <g
       id="g4172"
       transform="matrix(0,-1,1,0,-279.50509,743.80791)">
      <rect
         ry="1.1766599"
         y="426.64795"
         x="147.14285"
         height="170"
         width="170"
         id="rect4136"
         style="opacity:1;fill:#08f800;fill-opacity:1;fill-rule:nonzero;stroke:#000000;stroke-width:5;stroke-linecap:round;stroke-linejoin:round;stroke-miterlimit:4;stroke-dasharray:none;stroke-opacity:1" />
      <rect
         ry="1.1762644"
         y="426.72223"
         x="272.98114"
         height="169.94286"
         width="44.17886"
         id="rect4136-5"
         style="opacity:1;fill:#55a751;fill-opacity:1;fill-rule:nonzero;stroke:#000000;stroke-width:4.96600008;stroke-linecap:round;stroke-linejoin:round;stroke-miterlimit:4;stroke-dasharray:none;stroke-opacity:1" />
    </g>
    <path
       style="font-style:normal;font-variant:normal;font-weight:300;font-stretch:normal;font-size:medium;line-height:125%;font-family:Moon;-inkscape-font-specification:'Moon, Light';text-align:start;letter-spacing:0px;word-spacing:0px;writing-mode:lr-tb;text-anchor:start;fill:#000000;fill-opacity:1;stroke:none;stroke-width:1px;stroke-linecap:butt;stroke-linejoin:miter;stroke-opacity:1"
       d="m 241.89977,532.88256 c -0.0682,0.004 -0.13977,0.0173 -0.21484,0.043 -0.29297,0.10254 -0.43946,0.31202 -0.43946,0.62696 l 0,14.46875 c 0,0.1831 0.0654,0.33642 0.19727,0.46093 0.12451,0.13184 0.27783,0.19727 0.46093,0.19727 0.18311,0 0.33838,-0.0654 0.4629,-0.19727 0.13183,-0.12451 0.19726,-0.27783 0.19726,-0.46093 l 0,-12.54688 10.05274,12.95313 0.01,0.0117 0.0117,0.01 0.0664,0.0664 c 0.022,0.0147 0.0357,0.0259 0.043,0.0332 0.022,0.0147 0.0488,0.0284 0.0781,0.043 0.022,0.0147 0.0356,0.0259 0.043,0.0332 0.0219,0.007 0.0512,0.0185 0.0879,0.0332 l 0.0449,0.0117 c 0.0439,0.007 0.0869,0.01 0.13086,0.01 0.0366,0 0.0771,-0.002 0.12109,-0.01 0.007,0 0.021,-0.004 0.043,-0.0117 0.0293,-0.007 0.0562,-0.0142 0.0781,-0.0215 l 0.043,-0.0215 c 0.022,-0.007 0.0445,-0.0185 0.0664,-0.0332 0.0147,-0.007 0.0259,-0.0141 0.0332,-0.0215 0.0293,-0.022 0.0361,-0.0308 0.0215,-0.0234 -0.0147,0.0147 -0.003,0.008 0.0332,-0.0215 l 0.0449,-0.043 c 0.0147,-0.0147 0.0284,-0.0347 0.043,-0.0566 0.0147,-0.022 0.0259,-0.0401 0.0332,-0.0547 0.0147,-0.0147 0.0259,-0.0327 0.0332,-0.0547 0.007,-0.022 0.0142,-0.0401 0.0215,-0.0547 0.007,-0.0147 0.0141,-0.0371 0.0215,-0.0664 0.007,-0.022 0.0117,-0.0401 0.0117,-0.0547 0.007,-0.022 0.0117,-0.0445 0.0117,-0.0664 l 0,-0.043 0,-14.46875 c 0,-0.18311 -0.063,-0.33643 -0.1875,-0.46094 -0.13184,-0.13184 -0.28955,-0.19922 -0.47266,-0.19922 -0.17578,0 -0.3291,0.0674 -0.46094,0.19922 -0.12451,0.12451 -0.1875,0.27783 -0.1875,0.46094 l 0,12.54687 -10.0625,-12.95312 c -0.14282,-0.18677 -0.31686,-0.27466 -0.52148,-0.26368 z m -44.67578,0.0215 c -0.16846,-0.007 -0.32373,0.0581 -0.46289,0.19726 -0.13184,0.12452 -0.19727,0.27784 -0.19727,0.46094 l 0,14.45899 c 0,0.1831 0.0654,0.33642 0.19727,0.46093 0.12451,0.13184 0.27979,0.19727 0.46289,0.19727 0.1831,0 0.33642,-0.0654 0.46093,-0.19727 0.13184,-0.12451 0.19727,-0.27783 0.19727,-0.46093 l 0,-6.57032 6.03125,0 c 0.18311,0 0.33643,-0.0654 0.46094,-0.19726 0.13184,-0.12452 0.19922,-0.27783 0.19922,-0.46094 0,-0.18311 -0.0674,-0.33838 -0.19922,-0.46289 -0.12451,-0.13184 -0.27783,-0.19727 -0.46094,-0.19727 l -6.03125,0 0,-5.91015 8.06445,0.0215 c 0.18311,0 0.33643,-0.061 0.46094,-0.18554 0.13184,-0.13184 0.19727,-0.28955 0.19727,-0.47266 0,-0.17578 -0.0654,-0.33106 -0.19727,-0.46289 -0.12451,-0.13184 -0.27783,-0.19727 -0.46094,-0.19727 l -8.72265,-0.0215 z m 32.4082,0.0215 c -2.17529,0 -4.03223,0.76856 -5.57031,2.30664 -1.53809,1.53809 -2.30664,3.39502 -2.30664,5.57032 0,2.17529 0.76855,4.03222 2.30664,5.57031 1.53808,1.53809 3.39502,2.30664 5.57031,2.30664 2.17529,0 4.03223,-0.76855 5.57031,-2.30664 1.53809,-1.53809 2.30664,-3.39502 2.30664,-5.57031 0,-2.1753 -0.76855,-4.03223 -2.30664,-5.57032 -1.53808,-1.53808 -3.39502,-2.30664 -5.57031,-2.30664 z m 27.44531,0 c -0.1831,0 -0.34082,0.0654 -0.47265,0.19727 -0.12452,0.12451 -0.1875,0.27978 -0.1875,0.46289 0,0.18311 0.063,0.33642 0.1875,0.46094 0.13183,0.1245 0.28955,0.1875 0.47265,0.1875 l 4.33789,0 0,13.78711 c 0,0.1831 0.063,0.34081 0.1875,0.47265 0.13184,0.12452 0.28516,0.18555 0.46094,0.18555 0.18311,0 0.34082,-0.061 0.47266,-0.18555 0.12451,-0.13184 0.1875,-0.28955 0.1875,-0.47265 l 0,-13.78711 4.33984,0 c 0.18311,0 0.33643,-0.063 0.46094,-0.1875 0.13183,-0.12452 0.19726,-0.27783 0.19726,-0.46094 0,-0.18311 -0.0654,-0.33838 -0.19726,-0.46289 -0.12451,-0.13184 -0.27783,-0.19727 -0.46094,-0.19727 l -9.98633,0 z m -47.39648,0.0215 c -0.17578,0 -0.3291,0.063 -0.46094,0.1875 -0.12451,0.12451 -0.1875,0.27783 -0.1875,0.46094 l 0,14.32617 c 0,0.17578 0.063,0.33105 0.1875,0.46289 0.13184,0.1245 0.28516,0.18554 0.46094,0.18554 0.1831,0 0.33837,-0.061 0.46289,-0.18554 0.13183,-0.13184 0.19726,-0.28711 0.19726,-0.46289 l 0,-6.49219 3.66993,0 3.39453,6.88867 c 0.11718,0.2417 0.31103,0.36133 0.58203,0.36133 0.10254,0 0.19726,-0.0205 0.28515,-0.0644 0.16114,-0.0806 0.27149,-0.20654 0.33008,-0.375 0.0586,-0.16846 0.0474,-0.33301 -0.0332,-0.49414 l -3.13086,-6.38282 c 1.09131,-0.16845 1.99512,-0.64404 2.71289,-1.42773 0.73242,-0.79101 1.09961,-1.70605 1.09961,-2.74609 0,-1.17188 -0.44824,-2.17237 -1.3418,-3 -0.90088,-0.82765 -1.98486,-1.24219 -3.25195,-1.24219 l -4.97656,0 z m 19.95117,1.28711 c 1.80908,0 3.35498,0.64452 4.63672,1.93359 1.28907,1.28174 1.93359,2.82569 1.93359,4.63477 0,1.80908 -0.64452,3.35498 -1.93359,4.63672 -1.28174,1.28173 -2.82764,1.92187 -4.63672,1.92187 -1.80908,0 -3.35302,-0.64014 -4.63476,-1.92187 -1.28175,-1.28174 -1.92383,-2.82764 -1.92383,-4.63672 0,-1.80908 0.64209,-3.35303 1.92383,-4.63477 1.28173,-1.28907 2.82568,-1.93359 4.63476,-1.93359 z m -19.29102,0.01 4.31641,0 c 0.9082,0 1.68554,0.29053 2.33008,0.86914 0.64453,0.57129 0.96679,1.26318 0.96679,2.07618 0,0.79833 -0.31542,1.4834 -0.94531,2.05468 -0.62256,0.57129 -1.37988,0.86426 -2.27344,0.87891 l -4.39453,0 0,-5.87891 z"
       id="path4158"
       inkscape:connector-curvature="0" />
    <path
       style="font-style:normal;font-variant:normal;font-weight:300;font-stretch:normal;font-size:medium;line-height:125%;font-family:Moon;-inkscape-font-specification:'Moon, Light';text-align:start;letter-spacing:0px;word-spacing:0px;writing-mode:lr-tb;text-anchor:start;fill:#000000;fill-opacity:1;stroke:none;stroke-width:1px;stroke-linecap:butt;stroke-linejoin:miter;stroke-opacity:1"
       inkscape:connector-curvature="0"
       id="path4168"
       d="m 236.05542,507.48751 c -0.0165,-0.0824 -0.0503,-0.16138 -0.10156,-0.23828 l -3.26368,-5.00977 0,-0.0117 c -0.0146,-0.0147 -0.0327,-0.0371 -0.0547,-0.0664 -0.0183,-0.0183 -0.0515,-0.0515 -0.0332,-0.0332 0.007,0.007 -0.004,5.2e-4 -0.0332,-0.0215 -0.0293,-0.0293 -0.0498,-0.0474 -0.0645,-0.0547 l 0,-0.0117 c 0.007,0.0147 -0.008,0.0122 -0.0449,-0.01 -0.0293,-0.0219 -0.0542,-0.0376 -0.0762,-0.0449 l -0.0547,-0.0215 c -0.0366,-0.007 -0.0591,-0.0117 -0.0664,-0.0117 -0.007,0 -0.0254,-0.002 -0.0547,-0.01 l -0.0664,0 -0.0664,0 c -0.0293,0.007 -0.0473,0.01 -0.0547,0.01 -0.007,0 -0.0298,0.004 -0.0664,0.0117 l -0.0547,0.0215 c -0.022,0.007 -0.0469,0.0229 -0.0762,0.0449 -0.044,0.022 -0.0552,0.0244 -0.0332,0.01 l -0.0117,0.0117 c -0.0366,0.022 -0.0728,0.0513 -0.10937,0.0879 l -0.0332,0.0449 c -0.0293,0.0293 -0.043,0.0474 -0.043,0.0547 l -3.26367,5.00977 c -0.0733,0.10986 -0.10938,0.22705 -0.10938,0.35156 0,0.2417 0.0991,0.42432 0.29688,0.54883 0.1538,0.10253 0.31836,0.13621 0.49414,0.0996 0.17578,-0.0366 0.31103,-0.13331 0.40625,-0.28711 l 2.72461,-4.17383 2.72461,4.17383 c 0.0952,0.15382 0.23047,0.25051 0.40625,0.28711 0.17578,0.0366 0.34033,0.003 0.49414,-0.0996 0.15383,-0.0952 0.24855,-0.23047 0.28515,-0.40625 0.0183,-0.0879 0.0204,-0.17346 0.004,-0.25586 z m -3.03516,5.14453 c 0,-0.17579 -0.063,-0.3291 -0.1875,-0.46094 -0.13183,-0.12451 -0.28516,-0.1875 -0.46094,-0.1875 -0.1831,0 -0.34081,0.063 -0.47265,0.1875 -0.12451,0.13184 -0.18555,0.28515 -0.18555,0.46094 l 0,6.04297 c 0,0.1831 0.061,0.33642 0.18555,0.46094 0.13184,0.13184 0.28955,0.19726 0.47265,0.19726 0.17578,0 0.32911,-0.0654 0.46094,-0.19726 0.12452,-0.12452 0.1875,-0.27784 0.1875,-0.46094 l 0,-6.04297 z" />
  </g>
</svg>
