<?xml version="1.0" encoding="UTF-8" standalone="no"?>
<!-- Created with Inkscape (http://www.inkscape.org/) -->

<svg
   xmlns:dc="http://purl.org/dc/elements/1.1/"
   xmlns:cc="http://creativecommons.org/ns#"
   xmlns:rdf="http://www.w3.org/1999/02/22-rdf-syntax-ns#"
   xmlns:svg="http://www.w3.org/2000/svg"
   xmlns="http://www.w3.org/2000/svg"
   xmlns:sodipodi="http://sodipodi.sourceforge.net/DTD/sodipodi-0.dtd"
   xmlns:inkscape="http://www.inkscape.org/namespaces/inkscape"
   width="49.388931mm"
   height="49.388935mm"
   viewBox="0 0 175.00015 175.00016"
   id="svg2"
   version="1.1"
   inkscape:version="0.91 r13725"
   sodipodi:docname="1ori.svg">
  <defs
     id="defs4" />
  <sodipodi:namedview
     id="base"
     pagecolor="#ffffff"
     bordercolor="#666666"
     borderopacity="1.0"
     inkscape:pageopacity="0.0"
     inkscape:pageshadow="2"
     inkscape:zoom="1.979899"
     inkscape:cx="154.73087"
     inkscape:cy="112.84242"
     inkscape:document-units="px"
     inkscape:current-layer="layer1"
     showgrid="false"
     fit-margin-top="0"
     fit-margin-left="0"
     fit-margin-right="0"
     fit-margin-bottom="0"
     inkscape:window-width="1920"
     inkscape:window-height="1017"
     inkscape:window-x="-8"
     inkscape:window-y="-8"
     inkscape:window-maximized="1" />
  <metadata
     id="metadata7">
    <rdf:RDF>
      <cc:Work
         rdf:about="">
        <dc:format>image/svg+xml</dc:format>
        <dc:type
           rdf:resource="http://purl.org/dc/dcmitype/StillImage" />
        <dc:title></dc:title>
      </cc:Work>
    </rdf:RDF>
  </metadata>
  <g
     inkscape:label="Layer 1"
     inkscape:groupmode="layer"
     id="layer1"
     transform="translate(-144.64285,-424.14792)">
    <rect
       style="opacity:1;fill:#08f800;fill-opacity:1;fill-rule:nonzero;stroke:#000000;stroke-width:5;stroke-linecap:round;stroke-linejoin:round;stroke-miterlimit:4;stroke-dasharray:none;stroke-opacity:1"
       id="rect4136"
       width="170"
       height="170"
       x="147.14285"
       y="426.64792"
       ry="1.1766599" />
    <rect
       style="opacity:1;fill:#55a751;fill-opacity:1;fill-rule:nonzero;stroke:#000000;stroke-width:4.96600008;stroke-linecap:round;stroke-linejoin:round;stroke-miterlimit:4;stroke-dasharray:none;stroke-opacity:1"
       id="rect4136-5"
       width="44.17886"
       height="169.94286"
       x="272.98114"
       y="426.72223"
       ry="1.1762644" />
    <g
       style="font-style:normal;font-variant:normal;font-weight:300;font-stretch:normal;font-size:22.5px;line-height:125%;font-family:Moon;-inkscape-font-specification:'Moon, Light';text-align:start;letter-spacing:0px;word-spacing:0px;writing-mode:lr-tb;text-anchor:start;fill:#000000;fill-opacity:1;stroke:none;stroke-width:1px;stroke-linecap:butt;stroke-linejoin:miter;stroke-opacity:1"
       id="text4153">
      <path
         d="m 167.53352,512.31854 6.0315,0 q 0.27466,0 0.46142,-0.19775 0.19776,-0.18677 0.19776,-0.46143 0,-0.27466 -0.19776,-0.46142 -0.18676,-0.19776 -0.46142,-0.19776 l -6.0315,0 0,-5.91064 8.06397,0.022 0,0 q 0.27466,0 0.46142,-0.18677 0.19776,-0.19775 0.19776,-0.47241 0,-0.26367 -0.19776,-0.46142 -0.18676,-0.19776 -0.46142,-0.19776 l -8.72315,-0.022 q -0.25268,-0.011 -0.46142,0.19775 -0.19776,0.18677 -0.19776,0.46143 l 0,14.45801 q 0,0.27465 0.19776,0.46142 0.18677,0.19776 0.46142,0.19776 0.27466,0 0.46143,-0.19776 0.19775,-0.18677 0.19775,-0.46142 l 0,-6.56983 z"
         style=""
         id="path4158" />
      <path
         d="m 187.60555,508.05585 q 0,1.19751 -0.94483,2.05444 -0.93384,0.85693 -2.27417,0.87891 l -4.39453,0 0,-5.87769 4.31763,0 q 1.3623,0 2.3291,0.86792 0.9668,0.85693 0.9668,2.07642 z m -8.27271,-4.24073 q -0.26367,0 -0.46143,0.18677 -0.18676,0.18677 -0.18676,0.46143 l 0,14.32617 q 0,0.26367 0.18676,0.46143 0.19776,0.18676 0.46143,0.18676 0.27466,0 0.46143,-0.18676 0.19775,-0.19776 0.19775,-0.46143 l 0,-6.49292 3.66943,0 3.39478,6.88843 q 0.17578,0.36255 0.58227,0.36255 0.15381,0 0.28565,-0.0659 0.2417,-0.12085 0.32959,-0.37354 0.0879,-0.25268 -0.033,-0.49438 l -3.1311,-6.38306 q 1.63696,-0.25268 2.71362,-1.42822 1.09863,-1.18652 1.09863,-2.74658 0,-1.75782 -1.34033,-2.99927 -1.35132,-1.24146 -3.25195,-1.24146 l -4.97681,0 z"
         style=""
         id="path4160" />
      <path
         d="m 199.28401,505.10052 q 2.71362,0 4.63623,1.9336 1.9336,1.92261 1.9336,4.63623 0,2.71362 -1.9336,4.63623 -1.92261,1.92261 -4.63623,1.92261 -2.71362,0 -4.63623,-1.92261 -1.92261,-1.92261 -1.92261,-4.63623 0,-2.71362 1.92261,-4.63623 1.92261,-1.9336 4.63623,-1.9336 z m 0,14.44703 q 3.26294,0 5.57007,-2.30713 2.30713,-2.30713 2.30713,-5.57007 0,-3.26294 -2.30713,-5.57007 -2.30713,-2.30713 -5.57007,-2.30713 -3.26294,0 -5.57007,2.30713 -2.30713,2.30713 -2.30713,5.57007 0,3.26294 2.30713,5.57007 2.30713,2.30713 5.57007,2.30713 z"
         style=""
         id="path4162" />
      <path
         d="m 222.28938,519.31683 q 0.033,0.033 0.0659,0.0659 0.033,0.022 0.0439,0.033 0.033,0.022 0.0769,0.0439 0.033,0.022 0.044,0.033 0.0329,0.011 0.0879,0.033 0.0439,0.011 0.0439,0.011 0.0659,0.011 0.13184,0.011 l 0,0 q 0.0549,0 0.12085,-0.011 0.011,0 0.0439,-0.011 0.044,-0.011 0.0769,-0.022 0.022,-0.011 0.0439,-0.022 0.033,-0.011 0.0659,-0.033 0.022,-0.011 0.033,-0.022 0.0439,-0.033 0.022,-0.022 -0.022,0.022 0.033,-0.022 0.033,-0.033 0.0439,-0.0439 0.022,-0.022 0.0439,-0.0549 0.022,-0.033 0.033,-0.0549 0.022,-0.022 0.033,-0.0549 0.011,-0.033 0.022,-0.0549 0.011,-0.022 0.022,-0.0659 0.011,-0.033 0.011,-0.0549 0.011,-0.033 0.011,-0.0659 0,-0.0659 0,-0.0439 l 0,-14.469 q 0,-0.27466 -0.18677,-0.46142 -0.19775,-0.19776 -0.47241,-0.19776 -0.26367,0 -0.46143,0.19776 -0.18677,0.18676 -0.18677,0.46142 l 0,12.54639 -10.06347,-12.95288 q -0.28565,-0.37354 -0.73609,-0.21973 -0.43945,0.15381 -0.43945,0.62622 l 0,14.469 q 0,0.27465 0.19775,0.46142 0.18677,0.19776 0.46143,0.19776 0.27466,0 0.46143,-0.19776 0.19775,-0.18677 0.19775,-0.46142 l 0,-12.54639 10.05249,12.95288 q 0,0 0.011,0.011 0.011,0.011 0.011,0.011 z"
         style=""
         id="path4164" />
      <path
         d="m 231.06746,518.88837 q 0,0.27465 0.18677,0.47241 0.19775,0.18677 0.46142,0.18677 0.27466,0 0.47241,-0.18677 0.18677,-0.19776 0.18677,-0.47241 l 0,-13.78785 4.3396,0 q 0.27466,0 0.46143,-0.18676 0.19775,-0.18677 0.19775,-0.46143 0,-0.27466 -0.19775,-0.46142 -0.18677,-0.19776 -0.46143,-0.19776 l -9.98657,0 q -0.27466,0 -0.47241,0.19776 -0.18677,0.18676 -0.18677,0.46142 0,0.27466 0.18677,0.46143 0.19775,0.18676 0.47241,0.18676 l 4.3396,0 0,13.78785 z"
         style=""
         id="path4166" />
      <path
         d="m 240.08723,510.76947 q -0.27465,0 -0.46142,0.18677 -0.19776,0.19775 -0.19776,0.46142 0,0.27466 0.19776,0.47242 0.18677,0.18676 0.46142,0.18676 l 6.04248,0 q 0.26368,0 0.46143,-0.18676 0.18677,-0.19776 0.18677,-0.47242 0,-0.26367 -0.18677,-0.46142 -0.19775,-0.18677 -0.46143,-0.18677 l -6.04248,0 z"
         style=""
         id="path4168" />
      <path
         d="m 256.81941,511.58246 q -0.011,-0.044 -0.011,-0.0549 0,-0.011 -0.011,-0.0659 -0.022,-0.0549 -0.022,-0.0549 -0.011,-0.033 -0.0439,-0.0769 -0.033,-0.0549 -0.011,-0.0439 l -0.011,0 q -0.011,-0.022 -0.0549,-0.0659 -0.033,-0.044 -0.022,-0.033 0.011,0.011 -0.0329,-0.033 -0.0439,-0.033 -0.0659,-0.0549 l -0.011,0 0,0 -5.00976,-3.26294 q -0.23072,-0.15381 -0.49439,-0.0989 -0.26367,0.0549 -0.40649,0.28565 -0.15381,0.23071 -0.0989,0.49438 0.0549,0.26367 0.28564,0.4065 l 4.17481,2.72461 -4.17481,2.72461 q -0.23071,0.14282 -0.28564,0.40649 -0.0549,0.26367 0.0989,0.49438 0.18676,0.29664 0.54931,0.29664 0.18677,0 0.35157,-0.10987 l 5.00976,-3.26294 q 0.011,0 0.0549,-0.0439 l 0.0439,-0.033 q 0.0549,-0.0549 0.0879,-0.10986 0,0 0.011,-0.011 -0.022,0.033 0.011,-0.033 0.033,-0.0439 0.0439,-0.0769 0,0 0.022,-0.0549 0.011,-0.0549 0.011,-0.0659 0,-0.011 0.011,-0.0549 0,-0.0549 0,-0.0659 0,-0.011 0,-0.0659 z"
         style=""
         id="path4170" />
    </g>
  </g>
</svg>
