<?xml version="1.0" encoding="UTF-8" standalone="no"?>
<!-- Created with Inkscape (http://www.inkscape.org/) -->

<svg
   xmlns:dc="http://purl.org/dc/elements/1.1/"
   xmlns:cc="http://creativecommons.org/ns#"
   xmlns:rdf="http://www.w3.org/1999/02/22-rdf-syntax-ns#"
   xmlns:svg="http://www.w3.org/2000/svg"
   xmlns="http://www.w3.org/2000/svg"
   xmlns:sodipodi="http://sodipodi.sourceforge.net/DTD/sodipodi-0.dtd"
   xmlns:inkscape="http://www.inkscape.org/namespaces/inkscape"
   width="2.4990721mm"
   height="4.4524412mm"
   viewBox="0 0 8.8549799 15.776367"
   id="svg2"
   version="1.1"
   inkscape:version="0.91 r13725"
   sodipodi:docname="2.svg">
  <defs
     id="defs4" />
  <sodipodi:namedview
     id="base"
     pagecolor="#ffffff"
     bordercolor="#666666"
     borderopacity="1.0"
     inkscape:pageopacity="0.0"
     inkscape:pageshadow="2"
     inkscape:zoom="7.9195959"
     inkscape:cx="-59.981414"
     inkscape:cy="-12.526417"
     inkscape:document-units="px"
     inkscape:current-layer="layer1"
     showgrid="false"
     inkscape:window-width="1920"
     inkscape:window-height="1017"
     inkscape:window-x="-8"
     inkscape:window-y="-8"
     inkscape:window-maximized="1"
     fit-margin-top="0"
     fit-margin-left="0"
     fit-margin-right="0"
     fit-margin-bottom="0" />
  <metadata
     id="metadata7">
    <rdf:RDF>
      <cc:Work
         rdf:about="">
        <dc:format>image/svg+xml</dc:format>
        <dc:type
           rdf:resource="http://purl.org/dc/dcmitype/StillImage" />
        <dc:title />
      </cc:Work>
    </rdf:RDF>
  </metadata>
  <g
     inkscape:label="Layer 1"
     inkscape:groupmode="layer"
     id="layer1"
     transform="translate(-323.03781,-605.37701)">
    <g
       style="font-style:normal;font-variant:normal;font-weight:300;font-stretch:normal;font-size:22.5px;line-height:125%;font-family:Moon;-inkscape-font-specification:'Moon, Light';text-align:start;letter-spacing:0px;word-spacing:0px;writing-mode:lr-tb;text-anchor:start;fill:#000000;fill-opacity:1;stroke:none;stroke-width:1px;stroke-linecap:butt;stroke-linejoin:miter;stroke-opacity:1"
       id="text4136" />
    <g
       style="font-style:normal;font-variant:normal;font-weight:300;font-stretch:normal;font-size:22.5px;line-height:125%;font-family:Moon;-inkscape-font-specification:'Moon, Light';text-align:start;letter-spacing:0px;word-spacing:0px;writing-mode:lr-tb;text-anchor:start;fill:#000000;fill-opacity:1;stroke:none;stroke-width:1px;stroke-linecap:butt;stroke-linejoin:miter;stroke-opacity:1"
       id="text4147">
      <path
         d="m 331.89279,620.4942 q 0,-0.27466 -0.18677,-0.46142 -0.19775,-0.19776 -0.46142,-0.19776 l -6.02051,0 5.80078,-8.42651 q 0.033,-0.0549 0.0659,-0.10986 0.36255,-0.81299 0.36255,-1.71387 0,-1.73584 -1.23047,-2.9773 -1.24146,-1.23047 -2.9773,-1.23047 -1.73583,0 -2.97729,1.23047 -1.23047,1.24146 -1.23047,2.9773 0,0.13183 0.011,0.27466 0.011,0.27465 0.21972,0.45044 0.20874,0.17578 0.47242,0.16479 0.27465,-0.022 0.45044,-0.21973 0.18676,-0.20874 0.16479,-0.48339 0,-0.0989 0,-0.18677 0,-1.19751 0.84595,-2.04346 0.84595,-0.84595 2.04345,-0.84595 1.19751,0 2.04346,0.84595 0.84595,0.84595 0.84595,2.04346 0,0.59326 -0.23071,1.13159 l -6.47095,9.4043 q -0.21973,0.32959 -0.0439,0.68115 0.18677,0.35156 0.58228,0.35156 l 7.27295,0 q 0.26367,0 0.46142,-0.19775 0.18677,-0.18677 0.18677,-0.46143 z"
         style=""
         id="path5251" />
    </g>
  </g>
</svg>
