<?xml version="1.0" encoding="UTF-8" standalone="no"?>
<!-- Created with Inkscape (http://www.inkscape.org/) -->

<svg
   xmlns:dc="http://purl.org/dc/elements/1.1/"
   xmlns:cc="http://creativecommons.org/ns#"
   xmlns:rdf="http://www.w3.org/1999/02/22-rdf-syntax-ns#"
   xmlns:svg="http://www.w3.org/2000/svg"
   xmlns="http://www.w3.org/2000/svg"
   xmlns:sodipodi="http://sodipodi.sourceforge.net/DTD/sodipodi-0.dtd"
   xmlns:inkscape="http://www.inkscape.org/namespaces/inkscape"
   width="2.4153564mm"
   height="4.4524412mm"
   viewBox="0 0 8.5583495 15.776367"
   id="svg2"
   version="1.1"
   inkscape:version="0.91 r13725"
   sodipodi:docname="3.svg">
  <defs
     id="defs4" />
  <sodipodi:namedview
     id="base"
     pagecolor="#ffffff"
     bordercolor="#666666"
     borderopacity="1.0"
     inkscape:pageopacity="0.0"
     inkscape:pageshadow="2"
     inkscape:zoom="7.9195959"
     inkscape:cx="1.03833"
     inkscape:cy="27.879651"
     inkscape:document-units="px"
     inkscape:current-layer="layer1"
     showgrid="false"
     inkscape:window-width="1920"
     inkscape:window-height="1017"
     inkscape:window-x="-8"
     inkscape:window-y="-8"
     inkscape:window-maximized="1"
     fit-margin-top="0"
     fit-margin-left="0"
     fit-margin-right="0"
     fit-margin-bottom="0" />
  <metadata
     id="metadata7">
    <rdf:RDF>
      <cc:Work
         rdf:about="">
        <dc:format>image/svg+xml</dc:format>
        <dc:type
           rdf:resource="http://purl.org/dc/dcmitype/StillImage" />
        <dc:title></dc:title>
      </cc:Work>
    </rdf:RDF>
  </metadata>
  <g
     inkscape:label="Layer 1"
     inkscape:groupmode="layer"
     id="layer1"
     transform="translate(-262.01807,-645.78308)">
    <g
       style="font-style:normal;font-variant:normal;font-weight:300;font-stretch:normal;font-size:22.5px;line-height:125%;font-family:Moon;-inkscape-font-specification:'Moon, Light';text-align:start;letter-spacing:0px;word-spacing:0px;writing-mode:lr-tb;text-anchor:start;fill:#000000;fill-opacity:1;stroke:none;stroke-width:1px;stroke-linecap:butt;stroke-linejoin:miter;stroke-opacity:1"
       id="text4136" />
    <g
       style="font-style:normal;font-variant:normal;font-weight:300;font-stretch:normal;font-size:22.5px;line-height:125%;font-family:Moon;-inkscape-font-specification:'Moon, Light';text-align:start;letter-spacing:0px;word-spacing:0px;writing-mode:lr-tb;text-anchor:start;fill:#000000;fill-opacity:1;stroke:none;stroke-width:1px;stroke-linecap:butt;stroke-linejoin:miter;stroke-opacity:1"
       id="text5253">
      <path
         d="m 270.57642,657.27478 q 0,-1.50513 -0.93384,-2.66968 -0.93384,-1.16455 -2.37305,-1.49414 l 2.94434,-6.39404 q 0.15381,-0.32959 -0.0439,-0.63721 -0.18677,-0.29663 -0.54931,-0.29663 l -6.94336,0 q -0.27466,0 -0.46143,0.18677 -0.19775,0.19775 -0.19775,0.47241 0,0.27466 0.19775,0.46143 0.18677,0.19775 0.46143,0.19775 l 5.92163,0 -2.90039,6.27319 q -0.14283,0.32959 0.0439,0.63721 0.19776,0.29663 0.5603,0.29663 1.21949,0 2.09839,0.86792 0.86792,0.87891 0.86792,2.09839 0,1.23047 -0.86792,2.09839 -0.8789,0.86792 -2.09839,0.86792 -1.23046,0 -2.09838,-0.86792 -0.86792,-0.86792 -0.86792,-2.09839 0,-0.26367 -0.19776,-0.46143 -0.18677,-0.19775 -0.46142,-0.19775 -0.27466,0 -0.46143,0.19775 -0.19775,0.19776 -0.19775,0.46143 0,1.7688 1.25244,3.03223 1.26343,1.25244 3.03222,1.25244 1.7688,0 3.02124,-1.25244 1.25245,-1.26343 1.25245,-3.03223 z"
         style=""
         id="path5258" />
    </g>
  </g>
</svg>
