<?xml version="1.0" encoding="UTF-8" standalone="no"?>
<!-- Created with Inkscape (http://www.inkscape.org/) -->

<svg
   xmlns:dc="http://purl.org/dc/elements/1.1/"
   xmlns:cc="http://creativecommons.org/ns#"
   xmlns:rdf="http://www.w3.org/1999/02/22-rdf-syntax-ns#"
   xmlns:svg="http://www.w3.org/2000/svg"
   xmlns="http://www.w3.org/2000/svg"
   xmlns:sodipodi="http://sodipodi.sourceforge.net/DTD/sodipodi-0.dtd"
   xmlns:inkscape="http://www.inkscape.org/namespaces/inkscape"
   width="49.388931mm"
   height="49.388935mm"
   viewBox="0 0 175.00015 175.00016"
   id="svg2"
   version="1.1"
   inkscape:version="0.91 r13725"
   sodipodi:docname="3ori.svg">
  <defs
     id="defs4" />
  <sodipodi:namedview
     id="base"
     pagecolor="#ffffff"
     bordercolor="#666666"
     borderopacity="1.0"
     inkscape:pageopacity="0.0"
     inkscape:pageshadow="2"
     inkscape:zoom="2.8"
     inkscape:cx="49.989461"
     inkscape:cy="84.843934"
     inkscape:document-units="px"
     inkscape:current-layer="layer1"
     showgrid="false"
     fit-margin-top="0"
     fit-margin-left="0"
     fit-margin-right="0"
     fit-margin-bottom="0"
     inkscape:window-width="1920"
     inkscape:window-height="1017"
     inkscape:window-x="-8"
     inkscape:window-y="-8"
     inkscape:window-maximized="1" />
  <metadata
     id="metadata7">
    <rdf:RDF>
      <cc:Work
         rdf:about="">
        <dc:format>image/svg+xml</dc:format>
        <dc:type
           rdf:resource="http://purl.org/dc/dcmitype/StillImage" />
        <dc:title></dc:title>
      </cc:Work>
    </rdf:RDF>
  </metadata>
  <g
     inkscape:label="Layer 1"
     inkscape:groupmode="layer"
     id="layer1"
     transform="translate(-144.64285,-424.14792)">
    <g
       id="g4172"
       transform="matrix(-1,0,0,-1,464.30285,1023.313)">
      <rect
         ry="1.1766599"
         y="426.64795"
         x="147.14285"
         height="170"
         width="170"
         id="rect4136"
         style="opacity:1;fill:#08f800;fill-opacity:1;fill-rule:nonzero;stroke:#000000;stroke-width:5;stroke-linecap:round;stroke-linejoin:round;stroke-miterlimit:4;stroke-dasharray:none;stroke-opacity:1" />
      <rect
         ry="1.1762644"
         y="426.72223"
         x="272.98114"
         height="169.94286"
         width="44.17886"
         id="rect4136-5"
         style="opacity:1;fill:#55a751;fill-opacity:1;fill-rule:nonzero;stroke:#000000;stroke-width:4.96600008;stroke-linecap:round;stroke-linejoin:round;stroke-miterlimit:4;stroke-dasharray:none;stroke-opacity:1" />
    </g>
    <path
       style="font-style:normal;font-variant:normal;font-weight:300;font-stretch:normal;font-size:medium;line-height:125%;font-family:Moon;-inkscape-font-specification:'Moon, Light';text-align:start;letter-spacing:0px;word-spacing:0px;writing-mode:lr-tb;text-anchor:start;fill:#000000;fill-opacity:1;stroke:none;stroke-width:1px;stroke-linecap:butt;stroke-linejoin:miter;stroke-opacity:1"
       d="M 120.69922 78.591797 C 120.63101 78.595459 120.55945 78.609131 120.48438 78.634766 C 120.19141 78.737306 120.04492 78.946779 120.04492 79.261719 L 120.04492 93.730469 C 120.04492 93.913569 120.11035 94.066893 120.24219 94.191406 C 120.3667 94.323246 120.52002 94.388672 120.70312 94.388672 C 120.88623 94.388672 121.0415 94.323246 121.16602 94.191406 C 121.29785 94.066893 121.36328 93.913569 121.36328 93.730469 L 121.36328 81.183594 L 131.41602 94.136719 L 131.42578 94.148438 L 131.4375 94.158203 L 131.50391 94.224609 C 131.52591 94.239276 131.53961 94.250479 131.54688 94.257812 C 131.56888 94.272479 131.59573 94.286181 131.625 94.300781 C 131.647 94.315448 131.66064 94.326651 131.66797 94.333984 C 131.6899 94.341318 131.71919 94.352521 131.75586 94.367188 L 131.80078 94.378906 C 131.84471 94.38624 131.88768 94.388672 131.93164 94.388672 C 131.96824 94.388672 132.00877 94.38624 132.05273 94.378906 C 132.06007 94.378906 132.07377 94.374521 132.0957 94.367188 C 132.12504 94.359854 132.15189 94.353036 132.17383 94.345703 L 132.2168 94.324219 C 132.2388 94.316885 132.26127 94.305682 132.2832 94.291016 C 132.29787 94.283682 132.30907 94.276865 132.31641 94.269531 C 132.34567 94.247531 132.35249 94.23876 132.33789 94.246094 C 132.32322 94.26076 132.33443 94.253943 132.37109 94.224609 L 132.41602 94.181641 C 132.43068 94.166974 132.44438 94.146933 132.45898 94.125 C 132.47365 94.103 132.48485 94.084912 132.49219 94.070312 C 132.50685 94.055646 132.51806 94.037558 132.52539 94.015625 C 132.53272 93.993625 132.53954 93.975537 132.54688 93.960938 C 132.55421 93.946271 132.56103 93.923798 132.56836 93.894531 C 132.57569 93.872531 132.58008 93.854444 132.58008 93.839844 C 132.58741 93.817844 132.5918 93.795371 132.5918 93.773438 L 132.5918 93.730469 L 132.5918 79.261719 C 132.5918 79.078612 132.52881 78.925288 132.4043 78.800781 C 132.27246 78.668941 132.11475 78.601562 131.93164 78.601562 C 131.75586 78.601562 131.60254 78.668941 131.4707 78.800781 C 131.34619 78.925288 131.2832 79.078612 131.2832 79.261719 L 131.2832 91.808594 L 121.2207 78.855469 C 121.07788 78.668699 120.90384 78.580811 120.69922 78.591797 z M 76.023438 78.613281 C 75.854984 78.605948 75.699707 78.67138 75.560547 78.810547 C 75.428707 78.93506 75.363281 79.088378 75.363281 79.271484 L 75.363281 93.730469 C 75.363281 93.913569 75.428707 94.066893 75.560547 94.191406 C 75.68506 94.323246 75.840337 94.388672 76.023438 94.388672 C 76.206544 94.388672 76.359862 94.323246 76.484375 94.191406 C 76.616208 94.066893 76.681641 93.913569 76.681641 93.730469 L 76.681641 87.160156 L 82.712891 87.160156 C 82.895997 87.160156 83.049321 87.094724 83.173828 86.962891 C 83.305668 86.838377 83.373047 86.68506 83.373047 86.501953 C 83.373047 86.318846 83.305668 86.163569 83.173828 86.039062 C 83.049321 85.907222 82.895997 85.841797 82.712891 85.841797 L 76.681641 85.841797 L 76.681641 79.931641 L 84.746094 79.953125 C 84.9292 79.953125 85.082525 79.892091 85.207031 79.767578 C 85.338871 79.635745 85.404297 79.478029 85.404297 79.294922 C 85.404297 79.119142 85.338871 78.963865 85.207031 78.832031 C 85.082525 78.700191 84.9292 78.634766 84.746094 78.634766 L 76.023438 78.613281 z M 108.43164 78.634766 C 106.25635 78.634766 104.39941 79.40332 102.86133 80.941406 C 101.32324 82.479493 100.55469 84.336425 100.55469 86.511719 C 100.55469 88.687012 101.32324 90.543945 102.86133 92.082031 C 104.39941 93.620118 106.25635 94.388672 108.43164 94.388672 C 110.60693 94.388672 112.46387 93.620118 114.00195 92.082031 C 115.54004 90.543945 116.30859 88.687012 116.30859 86.511719 C 116.30859 84.336425 115.54004 82.479493 114.00195 80.941406 C 112.46387 79.40332 110.60693 78.634766 108.43164 78.634766 z M 135.87695 78.634766 C 135.69385 78.634766 135.53613 78.700191 135.4043 78.832031 C 135.27978 78.956538 135.2168 79.111815 135.2168 79.294922 C 135.2168 79.478029 135.27978 79.631346 135.4043 79.755859 C 135.53613 79.880366 135.69385 79.943359 135.87695 79.943359 L 140.21484 79.943359 L 140.21484 93.730469 C 140.21484 93.913569 140.27783 94.071285 140.40234 94.203125 C 140.53418 94.327638 140.6875 94.388672 140.86328 94.388672 C 141.04639 94.388672 141.2041 94.327638 141.33594 94.203125 C 141.46045 94.071285 141.52344 93.913569 141.52344 93.730469 L 141.52344 79.943359 L 145.86328 79.943359 C 146.04639 79.943359 146.19971 79.880366 146.32422 79.755859 C 146.45605 79.631346 146.52148 79.478029 146.52148 79.294922 C 146.52148 79.111815 146.45605 78.956538 146.32422 78.832031 C 146.19971 78.700191 146.04639 78.634766 145.86328 78.634766 L 135.87695 78.634766 z M 88.480469 78.65625 C 88.304689 78.65625 88.151371 78.719237 88.019531 78.84375 C 87.895025 78.968263 87.832031 79.121581 87.832031 79.304688 L 87.832031 93.630859 C 87.832031 93.806639 87.895025 93.96191 88.019531 94.09375 C 88.151371 94.218257 88.304689 94.279297 88.480469 94.279297 C 88.663575 94.279297 88.818846 94.218257 88.943359 94.09375 C 89.075193 93.96191 89.140625 93.806639 89.140625 93.630859 L 89.140625 87.138672 L 92.810547 87.138672 L 96.205078 94.027344 C 96.322265 94.269044 96.516116 94.388672 96.787109 94.388672 C 96.889649 94.388672 96.984372 94.368152 97.072266 94.324219 C 97.233399 94.243652 97.34375 94.117679 97.402344 93.949219 C 97.460944 93.780765 97.449741 93.616211 97.369141 93.455078 L 94.238281 87.072266 C 95.329588 86.903812 96.233399 86.428225 96.951172 85.644531 C 97.683592 84.853518 98.050781 83.938478 98.050781 82.898438 C 98.050781 81.726558 97.602538 80.726071 96.708984 79.898438 C 95.808104 79.070797 94.724118 78.65625 93.457031 78.65625 L 88.480469 78.65625 z M 108.43164 79.943359 C 110.24072 79.943359 111.78662 80.587886 113.06836 81.876953 C 114.35743 83.158693 115.00195 84.702639 115.00195 86.511719 C 115.00195 88.320799 114.35743 89.866698 113.06836 91.148438 C 111.78662 92.430177 110.24072 93.070313 108.43164 93.070312 C 106.62256 93.070312 105.07862 92.430177 103.79688 91.148438 C 102.51513 89.866698 101.87305 88.320799 101.87305 86.511719 C 101.87305 84.702639 102.51514 83.158693 103.79688 81.876953 C 105.07861 80.587886 106.62256 79.943359 108.43164 79.943359 z M 89.140625 79.953125 L 93.457031 79.953125 C 94.365231 79.953125 95.142576 80.243652 95.787109 80.822266 C 96.431643 81.393552 96.753906 82.085444 96.753906 82.898438 C 96.753906 83.696777 96.43848 84.381838 95.808594 84.953125 C 95.186034 85.524412 94.42871 85.817378 93.535156 85.832031 L 89.140625 85.832031 L 89.140625 79.953125 z "
       transform="translate(144.64285,424.14791)"
       id="path4158" />
    <path
       style="font-style:normal;font-variant:normal;font-weight:300;font-stretch:normal;font-size:medium;line-height:125%;font-family:Moon;-inkscape-font-specification:'Moon, Light';text-align:start;letter-spacing:0px;word-spacing:0px;writing-mode:lr-tb;text-anchor:start;fill:#000000;fill-opacity:1;stroke:none;stroke-width:1px;stroke-linecap:butt;stroke-linejoin:miter;stroke-opacity:1"
       inkscape:connector-curvature="0"
       id="path4168"
       d="m 205.7486,506.7252 c -0.0824,0.0165 -0.16138,0.0503 -0.23828,0.10156 l -5.00977,3.26368 -0.0117,0 c -0.0147,0.0146 -0.0371,0.0327 -0.0664,0.0547 -0.0183,0.0183 -0.0515,0.0515 -0.0332,0.0332 0.007,-0.007 5.2e-4,0.004 -0.0215,0.0332 -0.0293,0.0293 -0.0474,0.0498 -0.0547,0.0645 l -0.0117,0 c 0.0147,-0.007 0.0122,0.008 -0.01,0.0449 -0.0219,0.0293 -0.0376,0.0542 -0.0449,0.0762 l -0.0215,0.0547 c -0.007,0.0366 -0.0117,0.0591 -0.0117,0.0664 0,0.007 -0.002,0.0254 -0.01,0.0547 l 0,0.0664 0,0.0664 c 0.007,0.0293 0.01,0.0473 0.01,0.0547 0,0.007 0.004,0.0298 0.0117,0.0664 l 0.0215,0.0547 c 0.007,0.022 0.0229,0.0469 0.0449,0.0762 0.022,0.044 0.0244,0.0552 0.01,0.0332 l 0.0117,0.0117 c 0.022,0.0366 0.0513,0.0728 0.0879,0.10937 l 0.0449,0.0332 c 0.0293,0.0293 0.0474,0.043 0.0547,0.043 l 5.00977,3.26367 c 0.10986,0.0733 0.22705,0.10938 0.35156,0.10938 0.2417,0 0.42432,-0.0991 0.54883,-0.29688 0.10253,-0.1538 0.13621,-0.31836 0.0996,-0.49414 -0.0366,-0.17578 -0.13331,-0.31103 -0.28711,-0.40625 l -4.17383,-2.72461 4.17383,-2.72461 c 0.15382,-0.0952 0.25051,-0.23047 0.28711,-0.40625 0.0366,-0.17578 0.003,-0.34033 -0.0996,-0.49414 -0.0952,-0.15383 -0.23047,-0.24855 -0.40625,-0.28515 -0.0879,-0.0183 -0.17346,-0.0204 -0.25586,-0.004 z m 5.14453,3.03516 c -0.17579,0 -0.3291,0.063 -0.46094,0.1875 -0.12451,0.13183 -0.1875,0.28516 -0.1875,0.46094 0,0.1831 0.063,0.34081 0.1875,0.47265 0.13184,0.12451 0.28515,0.18555 0.46094,0.18555 l 6.04297,0 c 0.1831,0 0.33642,-0.061 0.46094,-0.18555 0.13184,-0.13184 0.19726,-0.28955 0.19726,-0.47265 0,-0.17578 -0.0654,-0.32911 -0.19726,-0.46094 -0.12452,-0.12452 -0.27784,-0.1875 -0.46094,-0.1875 l -6.04297,0 z" />
  </g>
</svg>
