<?xml version="1.0" encoding="UTF-8" standalone="no"?>
<!-- Created with Inkscape (http://www.inkscape.org/) -->

<svg
   xmlns:dc="http://purl.org/dc/elements/1.1/"
   xmlns:cc="http://creativecommons.org/ns#"
   xmlns:rdf="http://www.w3.org/1999/02/22-rdf-syntax-ns#"
   xmlns:svg="http://www.w3.org/2000/svg"
   xmlns="http://www.w3.org/2000/svg"
   xmlns:sodipodi="http://sodipodi.sourceforge.net/DTD/sodipodi-0.dtd"
   xmlns:inkscape="http://www.inkscape.org/namespaces/inkscape"
   width="2.4153564mm"
   height="4.4431396mm"
   viewBox="0 0 8.5583495 15.743408"
   id="svg2"
   version="1.1"
   inkscape:version="0.91 r13725"
   sodipodi:docname="5.svg">
  <defs
     id="defs4" />
  <sodipodi:namedview
     id="base"
     pagecolor="#ffffff"
     bordercolor="#666666"
     borderopacity="1.0"
     inkscape:pageopacity="0.0"
     inkscape:pageshadow="2"
     inkscape:zoom="7.9195959"
     inkscape:cx="0.9387595"
     inkscape:cy="28.38472"
     inkscape:document-units="px"
     inkscape:current-layer="layer1"
     showgrid="false"
     inkscape:window-width="1920"
     inkscape:window-height="1017"
     inkscape:window-x="-8"
     inkscape:window-y="-8"
     inkscape:window-maximized="1"
     fit-margin-top="0"
     fit-margin-left="0"
     fit-margin-right="0"
     fit-margin-bottom="0" />
  <metadata
     id="metadata7">
    <rdf:RDF>
      <cc:Work
         rdf:about="">
        <dc:format>image/svg+xml</dc:format>
        <dc:type
           rdf:resource="http://purl.org/dc/dcmitype/StillImage" />
        <dc:title></dc:title>
      </cc:Work>
    </rdf:RDF>
  </metadata>
  <g
     inkscape:label="Layer 1"
     inkscape:groupmode="layer"
     id="layer1"
     transform="translate(-262.11765,-646.32111)">
    <g
       style="font-style:normal;font-variant:normal;font-weight:300;font-stretch:normal;font-size:22.5px;line-height:125%;font-family:Moon;-inkscape-font-specification:'Moon, Light';text-align:start;letter-spacing:0px;word-spacing:0px;writing-mode:lr-tb;text-anchor:start;fill:#000000;fill-opacity:1;stroke:none;stroke-width:1px;stroke-linecap:butt;stroke-linejoin:miter;stroke-opacity:1"
       id="text4136" />
    <g
       style="font-style:normal;font-variant:normal;font-weight:300;font-stretch:normal;font-size:22.5px;line-height:125%;font-family:Moon;-inkscape-font-specification:'Moon, Light';text-align:start;letter-spacing:0px;word-spacing:0px;writing-mode:lr-tb;text-anchor:start;fill:#000000;fill-opacity:1;stroke:none;stroke-width:1px;stroke-linecap:butt;stroke-linejoin:miter;stroke-opacity:1"
       id="text5267">
      <path
         d="m 270.67599,657.77985 q 0,-1.7688 -1.25244,-3.02124 -1.25244,-1.25245 -3.02124,-1.25245 l -2.53784,0 0,-5.86669 6.13037,0 q 0.27466,0 0.46143,-0.19776 0.19775,-0.19775 0.19775,-0.46142 0,-0.27466 -0.19775,-0.47242 -0.18677,-0.18676 -0.46143,-0.18676 l -6.77856,0 q -0.27466,0 -0.47241,0.18676 -0.18677,0.19776 -0.18677,0.47242 l 0,7.17407 q 0,0.27466 0.18677,0.47241 0.19775,0.18677 0.47241,0.18677 l 3.18603,0 q 1.21949,0 2.09839,0.86792 0.86792,0.8789 0.86792,2.09839 0,1.23046 -0.86792,2.09838 -0.8789,0.86792 -2.09839,0.86792 -1.23047,0 -2.09839,-0.86792 -0.86792,-0.86792 -0.86792,-2.09838 0,-0.26368 -0.19775,-0.46143 -0.18677,-0.19775 -0.46143,-0.19775 -0.27465,0 -0.46142,0.19775 -0.19775,0.19775 -0.19775,0.46143 0,1.7688 1.25244,3.03222 1.26342,1.25244 3.03222,1.25244 1.7688,0 3.02124,-1.25244 1.25244,-1.26342 1.25244,-3.03222 z"
         style=""
         id="path5272" />
    </g>
  </g>
</svg>
