<?xml version="1.0" encoding="UTF-8" standalone="no"?>
<!-- Created with Inkscape (http://www.inkscape.org/) -->

<svg
   xmlns:dc="http://purl.org/dc/elements/1.1/"
   xmlns:cc="http://creativecommons.org/ns#"
   xmlns:rdf="http://www.w3.org/1999/02/22-rdf-syntax-ns#"
   xmlns:svg="http://www.w3.org/2000/svg"
   xmlns="http://www.w3.org/2000/svg"
   xmlns:sodipodi="http://sodipodi.sourceforge.net/DTD/sodipodi-0.dtd"
   xmlns:inkscape="http://www.inkscape.org/namespaces/inkscape"
   width="2.4060547mm"
   height="4.4411812mm"
   viewBox="0 0 8.5253909 15.736469"
   id="svg2"
   version="1.1"
   inkscape:version="0.91 r13725"
   sodipodi:docname="6.svg">
  <defs
     id="defs4" />
  <sodipodi:namedview
     id="base"
     pagecolor="#ffffff"
     bordercolor="#666666"
     borderopacity="1.0"
     inkscape:pageopacity="0.0"
     inkscape:pageshadow="2"
     inkscape:zoom="7.9195959"
     inkscape:cx="0.64664998"
     inkscape:cy="28.510998"
     inkscape:document-units="px"
     inkscape:current-layer="layer1"
     showgrid="false"
     inkscape:window-width="1920"
     inkscape:window-height="1017"
     inkscape:window-x="-8"
     inkscape:window-y="-8"
     inkscape:window-maximized="1"
     fit-margin-top="0"
     fit-margin-left="0"
     fit-margin-right="0"
     fit-margin-bottom="0" />
  <metadata
     id="metadata7">
    <rdf:RDF>
      <cc:Work
         rdf:about="">
        <dc:format>image/svg+xml</dc:format>
        <dc:type
           rdf:resource="http://purl.org/dc/dcmitype/StillImage" />
        <dc:title></dc:title>
      </cc:Work>
    </rdf:RDF>
  </metadata>
  <g
     inkscape:label="Layer 1"
     inkscape:groupmode="layer"
     id="layer1"
     transform="translate(-262.40976,-646.45433)">
    <g
       style="font-style:normal;font-variant:normal;font-weight:300;font-stretch:normal;font-size:22.5px;line-height:125%;font-family:Moon;-inkscape-font-specification:'Moon, Light';text-align:start;letter-spacing:0px;word-spacing:0px;writing-mode:lr-tb;text-anchor:start;fill:#000000;fill-opacity:1;stroke:none;stroke-width:1px;stroke-linecap:butt;stroke-linejoin:miter;stroke-opacity:1"
       id="text4136" />
    <g
       style="font-style:normal;font-variant:normal;font-weight:300;font-stretch:normal;font-size:22.5px;line-height:125%;font-family:Moon;-inkscape-font-specification:'Moon, Light';text-align:start;letter-spacing:0px;word-spacing:0px;writing-mode:lr-tb;text-anchor:start;fill:#000000;fill-opacity:1;stroke:none;stroke-width:1px;stroke-linecap:butt;stroke-linejoin:miter;stroke-opacity:1"
       id="text5274">
      <path
         d="m 266.67245,660.88342 q -1.21948,0 -2.0874,-0.86792 -0.86792,-0.86792 -0.86792,-2.0874 0,-1.21948 0.86792,-2.0874 0.86792,-0.86792 2.0874,-0.86792 1.21949,0 2.08741,0.86792 0.86792,0.86792 0.86792,2.0874 0,1.21948 -0.86792,2.0874 -0.86792,0.86792 -2.08741,0.86792 z m 0,-7.21801 q -0.91186,0 -1.75781,0.38452 l 2.37305,-6.72364 q 0.0989,-0.25268 -0.022,-0.49438 -0.12085,-0.25269 -0.37354,-0.34058 -0.25268,-0.0879 -0.49438,0.033 -0.25269,0.10987 -0.34058,0.37354 l -3.41675,9.65698 q 0,-0.022 -0.011,0.022 -0.21973,0.67017 -0.21973,1.35132 0,1.75781 1.25244,3.01025 1.25244,1.25245 3.01025,1.25245 1.7688,0 3.02125,-1.25245 1.24145,-1.25244 1.24145,-3.01025 0,-1.7688 -1.24145,-3.02124 -1.25245,-1.24145 -3.02125,-1.24145 z"
         style=""
         id="path5279" />
    </g>
  </g>
</svg>
