<?xml version="1.0" encoding="UTF-8" standalone="no"?>
<!-- Created with Inkscape (http://www.inkscape.org/) -->

<svg
   xmlns:dc="http://purl.org/dc/elements/1.1/"
   xmlns:cc="http://creativecommons.org/ns#"
   xmlns:rdf="http://www.w3.org/1999/02/22-rdf-syntax-ns#"
   xmlns:svg="http://www.w3.org/2000/svg"
   xmlns="http://www.w3.org/2000/svg"
   xmlns:sodipodi="http://sodipodi.sourceforge.net/DTD/sodipodi-0.dtd"
   xmlns:inkscape="http://www.inkscape.org/namespaces/inkscape"
   width="2.4153564mm"
   height="4.4617434mm"
   viewBox="0 0 8.5583495 15.809327"
   id="svg2"
   version="1.1"
   inkscape:version="0.91 r13725"
   sodipodi:docname="8.svg">
  <defs
     id="defs4" />
  <sodipodi:namedview
     id="base"
     pagecolor="#ffffff"
     bordercolor="#666666"
     borderopacity="1.0"
     inkscape:pageopacity="0.0"
     inkscape:pageshadow="2"
     inkscape:zoom="7.9195959"
     inkscape:cx="36.351352"
     inkscape:cy="35.834598"
     inkscape:document-units="px"
     inkscape:current-layer="layer1"
     showgrid="false"
     inkscape:window-width="1920"
     inkscape:window-height="1017"
     inkscape:window-x="-8"
     inkscape:window-y="-8"
     inkscape:window-maximized="1"
     fit-margin-top="0"
     fit-margin-left="0"
     fit-margin-right="0"
     fit-margin-bottom="0" />
  <metadata
     id="metadata7">
    <rdf:RDF>
      <cc:Work
         rdf:about="">
        <dc:format>image/svg+xml</dc:format>
        <dc:type
           rdf:resource="http://purl.org/dc/dcmitype/StillImage" />
        <dc:title></dc:title>
      </cc:Work>
    </rdf:RDF>
  </metadata>
  <g
     inkscape:label="Layer 1"
     inkscape:groupmode="layer"
     id="layer1"
     transform="translate(-226.70506,-653.70508)">
    <g
       style="font-style:normal;font-variant:normal;font-weight:300;font-stretch:normal;font-size:22.5px;line-height:125%;font-family:Moon;-inkscape-font-specification:'Moon, Light';text-align:start;letter-spacing:0px;word-spacing:0px;writing-mode:lr-tb;text-anchor:start;fill:#000000;fill-opacity:1;stroke:none;stroke-width:1px;stroke-linecap:butt;stroke-linejoin:miter;stroke-opacity:1"
       id="text4136" />
    <g
       style="font-style:normal;font-variant:normal;font-weight:300;font-stretch:normal;font-size:22.5px;line-height:125%;font-family:Moon;-inkscape-font-specification:'Moon, Light';text-align:start;letter-spacing:0px;word-spacing:0px;writing-mode:lr-tb;text-anchor:start;fill:#000000;fill-opacity:1;stroke:none;stroke-width:1px;stroke-linecap:butt;stroke-linejoin:miter;stroke-opacity:1"
       id="text5288">
      <path
         d="m 230.98973,660.95605 q -1.23047,0 -2.09839,-0.8789 -0.86792,-0.86792 -0.86792,-2.0874 0,-1.23047 0.86792,-2.09839 0.86792,-0.86792 2.09839,-0.86792 1.21948,0 2.09839,0.86792 0.86792,0.86792 0.86792,2.09839 0,1.21948 -0.86792,2.0874 -0.87891,0.8789 -2.09839,0.8789 z m 2.96631,4.27369 q 0,1.23047 -0.86792,2.09838 -0.87891,0.86792 -2.09839,0.86792 -1.23047,0 -2.09839,-0.86792 -0.86792,-0.86791 -0.86792,-2.09838 0,-1.21949 0.86792,-2.09839 0.86792,-0.86792 2.09839,-0.86792 1.21948,0 2.09839,0.86792 0.86792,0.8789 0.86792,2.09839 z m 1.30737,-7.23999 q 0,-1.77979 -1.25244,-3.03223 -1.25244,-1.25244 -3.02124,-1.25244 -1.7688,0 -3.03223,1.25244 -1.25244,1.25244 -1.25244,3.03223 0,1.1206 0.54932,2.09838 0.53833,0.94483 1.46118,1.51612 -0.92285,0.58227 -1.46118,1.5271 -0.54932,0.97778 -0.54932,2.09839 0,1.7688 1.25244,3.03222 1.26343,1.25244 3.03223,1.25244 1.7688,0 3.02124,-1.25244 1.25244,-1.26342 1.25244,-3.03222 0,-1.12061 -0.54931,-2.09839 -0.53833,-0.94483 -1.46119,-1.5271 0.92286,-0.57129 1.46119,-1.51612 0.54931,-0.97778 0.54931,-2.09838 z"
         style=""
         id="path5293" />
    </g>
  </g>
</svg>
