<?xml version="1.0" encoding="UTF-8" standalone="no"?>
<!-- Created with Inkscape (http://www.inkscape.org/) -->

<svg
   xmlns:dc="http://purl.org/dc/elements/1.1/"
   xmlns:cc="http://creativecommons.org/ns#"
   xmlns:rdf="http://www.w3.org/1999/02/22-rdf-syntax-ns#"
   xmlns:svg="http://www.w3.org/2000/svg"
   xmlns="http://www.w3.org/2000/svg"
   xmlns:sodipodi="http://sodipodi.sourceforge.net/DTD/sodipodi-0.dtd"
   xmlns:inkscape="http://www.inkscape.org/namespaces/inkscape"
   width="2.4153564mm"
   height="4.4586425mm"
   viewBox="0 0 8.5583495 15.79834"
   id="svg2"
   version="1.1"
   inkscape:version="0.91 r13725"
   sodipodi:docname="9.svg">
  <defs
     id="defs4" />
  <sodipodi:namedview
     id="base"
     pagecolor="#ffffff"
     bordercolor="#666666"
     borderopacity="1.0"
     inkscape:pageopacity="0.0"
     inkscape:pageshadow="2"
     inkscape:zoom="7.9195959"
     inkscape:cx="43.602448"
     inkscape:cy="-14.799316"
     inkscape:document-units="px"
     inkscape:current-layer="layer1"
     showgrid="false"
     inkscape:window-width="1920"
     inkscape:window-height="1017"
     inkscape:window-x="-8"
     inkscape:window-y="-8"
     inkscape:window-maximized="1"
     fit-margin-top="0"
     fit-margin-left="0"
     fit-margin-right="0"
     fit-margin-bottom="0" />
  <metadata
     id="metadata7">
    <rdf:RDF>
      <cc:Work
         rdf:about="">
        <dc:format>image/svg+xml</dc:format>
        <dc:type
           rdf:resource="http://purl.org/dc/dcmitype/StillImage" />
        <dc:title></dc:title>
      </cc:Work>
    </rdf:RDF>
  </metadata>
  <g
     inkscape:label="Layer 1"
     inkscape:groupmode="layer"
     id="layer1"
     transform="translate(-219.45396,-603.08215)">
    <g
       style="font-style:normal;font-variant:normal;font-weight:300;font-stretch:normal;font-size:22.5px;line-height:125%;font-family:Moon;-inkscape-font-specification:'Moon, Light';text-align:start;letter-spacing:0px;word-spacing:0px;writing-mode:lr-tb;text-anchor:start;fill:#000000;fill-opacity:1;stroke:none;stroke-width:1px;stroke-linecap:butt;stroke-linejoin:miter;stroke-opacity:1"
       id="text4136" />
    <g
       style="font-style:normal;font-variant:normal;font-weight:300;font-stretch:normal;font-size:22.5px;line-height:125%;font-family:Moon;-inkscape-font-specification:'Moon, Light';text-align:start;letter-spacing:0px;word-spacing:0px;writing-mode:lr-tb;text-anchor:start;fill:#000000;fill-opacity:1;stroke:none;stroke-width:1px;stroke-linecap:butt;stroke-linejoin:miter;stroke-opacity:1"
       id="text5295">
      <path
         d="m 220.77232,607.36682 q 0,-1.23047 0.86792,-2.09839 0.86792,-0.86792 2.09839,-0.86792 1.21948,0 2.09839,0.86792 0.86792,0.86792 0.86792,2.09839 0,1.23047 -0.86792,2.09839 -0.87891,0.86792 -2.09839,0.86792 -1.23047,0 -2.09839,-0.86792 -0.86792,-0.86792 -0.86792,-2.09839 z m 2.96631,-4.28467 q -1.7688,0 -3.03222,1.26343 -1.25245,1.25244 -1.25245,3.02124 0,1.7688 1.25245,3.02124 1.26342,1.26343 3.03222,1.26343 0.91187,0 1.7688,-0.39551 l -2.39502,6.74561 q -0.0879,0.26367 0.033,0.50537 0.10986,0.2417 0.37354,0.34057 0.0989,0.033 0.21972,0.033 0.46143,0 0.61524,-0.43945 l 3.43872,-9.68994 q -0.022,0.0439 0,-0.033 0.21972,-0.67017 0.21972,-1.35132 0,-1.7688 -1.25244,-3.02124 -1.25244,-1.26343 -3.02124,-1.26343 z"
         style=""
         id="path5300" />
    </g>
  </g>
</svg>
