<?xml version="1.0" encoding="UTF-8" standalone="no"?>
<!-- Created with Inkscape (http://www.inkscape.org/) -->

<svg
   xmlns:dc="http://purl.org/dc/elements/1.1/"
   xmlns:cc="http://creativecommons.org/ns#"
   xmlns:rdf="http://www.w3.org/1999/02/22-rdf-syntax-ns#"
   xmlns:svg="http://www.w3.org/2000/svg"
   xmlns="http://www.w3.org/2000/svg"
   xmlns:sodipodi="http://sodipodi.sourceforge.net/DTD/sodipodi-0.dtd"
   xmlns:inkscape="http://www.inkscape.org/namespaces/inkscape"
   width="48.897717mm"
   height="23.987658mm"
   viewBox="0 0 173.25963 84.995635"
   id="svg2"
   version="1.1"
   inkscape:version="0.91 r13725"
   sodipodi:docname="blockOri.svg">
  <defs
     id="defs4" />
  <sodipodi:namedview
     id="base"
     pagecolor="#ffffff"
     bordercolor="#666666"
     borderopacity="1.0"
     inkscape:pageopacity="0.0"
     inkscape:pageshadow="2"
     inkscape:zoom="3.959798"
     inkscape:cx="125.14599"
     inkscape:cy="94.774278"
     inkscape:document-units="px"
     inkscape:current-layer="layer1"
     showgrid="false"
     fit-margin-top="0"
     fit-margin-left="0"
     fit-margin-right="0"
     fit-margin-bottom="0"
     inkscape:window-width="1920"
     inkscape:window-height="1017"
     inkscape:window-x="-8"
     inkscape:window-y="-8"
     inkscape:window-maximized="1" />
  <metadata
     id="metadata7">
    <rdf:RDF>
      <cc:Work
         rdf:about="">
        <dc:format>image/svg+xml</dc:format>
        <dc:type
           rdf:resource="http://purl.org/dc/dcmitype/StillImage" />
        <dc:title />
      </cc:Work>
    </rdf:RDF>
  </metadata>
  <g
     inkscape:label="Layer 1"
     inkscape:groupmode="layer"
     id="layer1"
     transform="translate(-145.48448,-425.00654)">
    <rect
       style="opacity:1;fill:#00e249;fill-opacity:1;fill-rule:nonzero;stroke:#000000;stroke-width:7.11785984;stroke-linecap:round;stroke-linejoin:round;stroke-miterlimit:4;stroke-dasharray:none;stroke-opacity:1"
       id="rect4688"
       width="165.90211"
       height="77.962822"
       x="149.12337"
       y="428.78824"
       ry="1.3618747" />
    <g
       style="font-style:normal;font-variant:normal;font-weight:300;font-stretch:normal;font-size:22.5px;line-height:125%;font-family:Moon;-inkscape-font-specification:'Moon, Light';text-align:start;letter-spacing:0px;word-spacing:0px;writing-mode:lr-tb;text-anchor:start;fill:#000000;fill-opacity:1;stroke:none;stroke-width:1px;stroke-linecap:butt;stroke-linejoin:miter;stroke-opacity:1"
       id="text4692">
      <path
         d="m 167.19467,461.22226 q 2.71362,0 4.63623,1.93359 1.9336,1.92261 1.9336,4.63623 0,2.71363 -1.9336,4.63623 -1.92261,1.92261 -4.63623,1.92261 -2.71362,0 -4.63623,-1.92261 -1.92261,-1.9226 -1.92261,-4.63623 0,-2.71362 1.92261,-4.63623 1.92261,-1.93359 4.63623,-1.93359 z m 0,14.44702 q 3.26294,0 5.57007,-2.30713 2.30713,-2.30713 2.30713,-5.57007 0,-3.26294 -2.30713,-5.57006 -2.30713,-2.30713 -5.57007,-2.30713 -3.26294,0 -5.57007,2.30713 -2.30713,2.30712 -2.30713,5.57006 0,3.26294 2.30713,5.57007 2.30713,2.30713 5.57007,2.30713 z"
         style=""
         id="path4697" />
      <path
         d="m 187.91489,464.17758 q 0,1.19751 -0.94483,2.05445 -0.93384,0.85693 -2.27417,0.8789 l -4.39453,0 0,-5.87768 4.31763,0 q 1.3623,0 2.3291,0.86792 0.9668,0.85693 0.9668,2.07641 z m -8.27271,-4.24072 q -0.26367,0 -0.46142,0.18677 -0.18677,0.18676 -0.18677,0.46142 l 0,14.32617 q 0,0.26368 0.18677,0.46143 0.19775,0.18677 0.46142,0.18677 0.27466,0 0.46143,-0.18677 0.19775,-0.19775 0.19775,-0.46143 l 0,-6.49292 3.66943,0 3.39478,6.88843 q 0.17578,0.36255 0.58228,0.36255 0.1538,0 0.28564,-0.0659 0.2417,-0.12085 0.32959,-0.37353 0.0879,-0.25269 -0.033,-0.49439 l -3.1311,-6.38305 q 1.63696,-0.25269 2.71362,-1.42823 1.09863,-1.18652 1.09863,-2.74658 0,-1.75781 -1.34033,-2.99927 -1.35132,-1.24145 -3.25195,-1.24145 l -4.97681,0 z"
         style=""
         id="path4699" />
      <path
         d="m 194.10019,460.61801 q 0,-0.27466 -0.19775,-0.46142 -0.18677,-0.19776 -0.46143,-0.19776 -0.27466,0 -0.46143,0.19776 -0.19775,0.18676 -0.19775,0.46142 l 0,14.39209 q 0,0.27466 0.19775,0.46143 0.18677,0.19775 0.46143,0.19775 0.27466,0 0.46143,-0.19775 0.19775,-0.18677 0.19775,-0.46143 l 0,-14.39209 z"
         style=""
         id="path4701" />
      <path
         d="m 207.89902,475.66928 q 0.27466,0 0.46142,-0.19775 0.19776,-0.18677 0.19776,-0.46143 0,-0.27466 -0.19776,-0.46142 -0.18676,-0.19776 -0.46142,-0.19776 l -8.06397,0 0,-5.91064 6.0315,0 q 0.27465,0 0.46142,-0.19776 0.19776,-0.18676 0.19776,-0.46142 0,-0.27466 -0.19776,-0.46143 -0.18677,-0.19775 -0.46142,-0.19775 l -6.0315,0 0,-5.91065 8.06397,0.022 0,0 q 0.27466,0 0.46142,-0.18677 0.19776,-0.19776 0.19776,-0.47241 0,-0.26368 -0.19776,-0.46143 -0.18676,-0.19775 -0.46142,-0.19775 l -8.72315,-0.022 q -0.26367,-0.011 -0.46142,0.19776 -0.19776,0.18677 -0.19776,0.46142 l 0,14.45801 q 0,0.27466 0.19776,0.46143 0.18676,0.19775 0.46142,0.19775 l 8.72315,0 z"
         style=""
         id="path4703" />
      <path
         d="m 223.21396,475.43857 q 0.033,0.033 0.0659,0.0659 0.033,0.022 0.0439,0.033 0.033,0.022 0.0769,0.0439 0.033,0.022 0.0439,0.033 0.033,0.011 0.0879,0.033 0.044,0.011 0.044,0.011 0.0659,0.011 0.13183,0.011 l 0,0 q 0.0549,0 0.12085,-0.011 0.011,0 0.0439,-0.011 0.0439,-0.011 0.0769,-0.022 0.022,-0.011 0.0439,-0.022 0.033,-0.011 0.0659,-0.033 0.022,-0.011 0.0329,-0.022 0.0439,-0.033 0.022,-0.022 -0.022,0.022 0.033,-0.022 0.033,-0.033 0.0439,-0.0439 0.022,-0.022 0.0439,-0.0549 0.022,-0.033 0.033,-0.0549 0.022,-0.022 0.033,-0.0549 0.011,-0.033 0.022,-0.0549 0.011,-0.022 0.022,-0.0659 0.011,-0.033 0.011,-0.0549 0.011,-0.0329 0.011,-0.0659 0,-0.0659 0,-0.0439 l 0,-14.46899 q 0,-0.27466 -0.18676,-0.46143 -0.19776,-0.19775 -0.47242,-0.19775 -0.26367,0 -0.46142,0.19775 -0.18677,0.18677 -0.18677,0.46143 l 0,12.54638 -10.06348,-12.95288 q -0.28564,-0.37353 -0.73608,-0.21972 -0.43945,0.15381 -0.43945,0.62622 l 0,14.46899 q 0,0.27466 0.19775,0.46143 0.18677,0.19775 0.46143,0.19775 0.27465,0 0.46142,-0.19775 0.19776,-0.18677 0.19776,-0.46143 l 0,-12.54639 10.05249,12.95289 q 0,0 0.011,0.011 0.011,0.011 0.011,0.011 z"
         style=""
         id="path4705" />
      <path
         d="m 231.99203,475.0101 q 0,0.27466 0.18677,0.47241 0.19776,0.18677 0.46143,0.18677 0.27466,0 0.47241,-0.18677 0.18677,-0.19775 0.18677,-0.47241 l 0,-13.78784 4.3396,0 q 0.27466,0 0.46142,-0.18677 0.19776,-0.18677 0.19776,-0.46142 0,-0.27466 -0.19776,-0.46143 -0.18676,-0.19775 -0.46142,-0.19775 l -9.98657,0 q -0.27466,0 -0.47242,0.19775 -0.18676,0.18677 -0.18676,0.46143 0,0.27465 0.18676,0.46142 0.19776,0.18677 0.47242,0.18677 l 4.33959,0 0,13.78784 z"
         style=""
         id="path4707" />
      <path
         d="m 242.93442,470.6705 3.47168,-8.37158 3.47168,8.37158 -6.94336,0 z m -2.75757,4.94385 q 0.12085,0.0549 0.25268,0.0549 0.43946,0 0.60425,-0.40649 l 1.36231,-3.27393 8.02002,0 1.3623,3.27393 q 0.1648,0.40649 0.60425,0.40649 0.13184,0 0.25269,-0.0549 0.25268,-0.0989 0.35156,-0.35156 0.10986,-0.25269 0,-0.50537 l -1.5271,-3.68042 0,-0.011 -4.44946,-10.73364 q -0.022,-0.0549 -0.0549,-0.12085 0,0.011 -0.0439,-0.0439 -0.033,-0.0439 -0.0439,-0.0549 -0.011,0 -0.0549,-0.0439 -0.0439,-0.033 -0.0439,-0.033 -0.10987,-0.0769 -0.2417,-0.0989 0.011,0 -0.0549,0 -0.0549,-0.011 -0.0659,-0.011 -0.011,0 -0.0769,0.011 -0.0549,0 -0.0549,0 -0.12085,0.022 -0.23071,0.0989 0.011,-0.011 -0.044,0.033 -0.0439,0.033 -0.0549,0.0439 -0.011,0.011 -0.0439,0.0549 -0.044,0.0439 -0.044,0.0439 -0.033,0.0659 -0.0549,0.12085 l -4.44946,10.73364 0,0.011 -1.5271,3.68042 q -0.10987,0.25268 0,0.50537 0.0989,0.25268 0.35156,0.35156 z"
         style=""
         id="path4709" />
      <path
         d="m 259.28207,475.0101 q 0,0.27466 0.18677,0.47241 0.19776,0.18677 0.46143,0.18677 0.27466,0 0.47241,-0.18677 0.18677,-0.19775 0.18677,-0.47241 l 0,-13.78784 4.3396,0 q 0.27465,0 0.46142,-0.18677 0.19776,-0.18677 0.19776,-0.46142 0,-0.27466 -0.19776,-0.46143 -0.18677,-0.19775 -0.46142,-0.19775 l -9.98658,0 q -0.27465,0 -0.47241,0.19775 -0.18677,0.18677 -0.18677,0.46143 0,0.27465 0.18677,0.46142 0.19776,0.18677 0.47241,0.18677 l 4.3396,0 0,13.78784 z"
         style=""
         id="path4711" />
      <path
         d="m 269.37851,460.61801 q 0,-0.27466 -0.19775,-0.46142 -0.18677,-0.19776 -0.46143,-0.19776 -0.27466,0 -0.46143,0.19776 -0.19775,0.18676 -0.19775,0.46142 l 0,14.39209 q 0,0.27466 0.19775,0.46143 0.18677,0.19775 0.46143,0.19775 0.27466,0 0.46143,-0.19775 0.19775,-0.18677 0.19775,-0.46143 l 0,-14.39209 z"
         style=""
         id="path4713" />
      <path
         d="m 280.67245,461.22226 q 2.71363,0 4.63624,1.93359 1.93359,1.92261 1.93359,4.63623 0,2.71363 -1.93359,4.63623 -1.92261,1.92261 -4.63624,1.92261 -2.71362,0 -4.63623,-1.92261 -1.9226,-1.9226 -1.9226,-4.63623 0,-2.71362 1.9226,-4.63623 1.92261,-1.93359 4.63623,-1.93359 z m 0,14.44702 q 3.26294,0 5.57007,-2.30713 2.30713,-2.30713 2.30713,-5.57007 0,-3.26294 -2.30713,-5.57006 -2.30713,-2.30713 -5.57007,-2.30713 -3.26293,0 -5.57006,2.30713 -2.30713,2.30712 -2.30713,5.57006 0,3.26294 2.30713,5.57007 2.30713,2.30713 5.57006,2.30713 z"
         style=""
         id="path4715" />
      <path
         d="m 303.67783,475.43857 q 0.033,0.033 0.0659,0.0659 0.033,0.022 0.0439,0.033 0.033,0.022 0.0769,0.0439 0.033,0.022 0.0439,0.033 0.033,0.011 0.0879,0.033 0.0439,0.011 0.0439,0.011 0.0659,0.011 0.13184,0.011 l 0,0 q 0.0549,0 0.12085,-0.011 0.011,0 0.0439,-0.011 0.0439,-0.011 0.0769,-0.022 0.022,-0.011 0.0439,-0.022 0.033,-0.011 0.0659,-0.033 0.022,-0.011 0.033,-0.022 0.0439,-0.033 0.022,-0.022 -0.022,0.022 0.033,-0.022 0.033,-0.033 0.044,-0.0439 0.022,-0.022 0.0439,-0.0549 0.022,-0.033 0.033,-0.0549 0.022,-0.022 0.033,-0.0549 0.011,-0.033 0.022,-0.0549 0.011,-0.022 0.022,-0.0659 0.011,-0.033 0.011,-0.0549 0.011,-0.0329 0.011,-0.0659 0,-0.0659 0,-0.0439 l 0,-14.46899 q 0,-0.27466 -0.18677,-0.46143 -0.19775,-0.19775 -0.47241,-0.19775 -0.26367,0 -0.46143,0.19775 -0.18676,0.18677 -0.18676,0.46143 l 0,12.54638 -10.06348,-12.95288 q -0.28564,-0.37353 -0.73608,-0.21972 -0.43946,0.15381 -0.43946,0.62622 l 0,14.46899 q 0,0.27466 0.19776,0.46143 0.18677,0.19775 0.46142,0.19775 0.27466,0 0.46143,-0.19775 0.19775,-0.18677 0.19775,-0.46143 l 0,-12.54639 10.05249,12.95289 q 0,0 0.011,0.011 0.011,0.011 0.011,0.011 z"
         style=""
         id="path4717" />
    </g>
  </g>
</svg>
