<?xml version="1.0" encoding="UTF-8" standalone="no"?>
<!-- Created with Inkscape (http://www.inkscape.org/) -->

<svg
   xmlns:dc="http://purl.org/dc/elements/1.1/"
   xmlns:cc="http://creativecommons.org/ns#"
   xmlns:rdf="http://www.w3.org/1999/02/22-rdf-syntax-ns#"
   xmlns:svg="http://www.w3.org/2000/svg"
   xmlns="http://www.w3.org/2000/svg"
   xmlns:sodipodi="http://sodipodi.sourceforge.net/DTD/sodipodi-0.dtd"
   xmlns:inkscape="http://www.inkscape.org/namespaces/inkscape"
   width="49.388931mm"
   height="49.388935mm"
   viewBox="0 0 175.00015 175.00016"
   id="svg2"
   version="1.1"
   inkscape:version="0.91 r13725"
   sodipodi:docname="blockID.svg">
  <defs
     id="defs4" />
  <sodipodi:namedview
     id="base"
     pagecolor="#ffffff"
     bordercolor="#666666"
     borderopacity="1.0"
     inkscape:pageopacity="0.0"
     inkscape:pageshadow="2"
     inkscape:zoom="2.8"
     inkscape:cx="49.972325"
     inkscape:cy="68.092216"
     inkscape:document-units="px"
     inkscape:current-layer="layer1"
     showgrid="false"
     fit-margin-top="0"
     fit-margin-left="0"
     fit-margin-right="0"
     fit-margin-bottom="0"
     inkscape:window-width="1920"
     inkscape:window-height="1017"
     inkscape:window-x="-8"
     inkscape:window-y="-8"
     inkscape:window-maximized="1" />
  <metadata
     id="metadata7">
    <rdf:RDF>
      <cc:Work
         rdf:about="">
        <dc:format>image/svg+xml</dc:format>
        <dc:type
           rdf:resource="http://purl.org/dc/dcmitype/StillImage" />
        <dc:title></dc:title>
      </cc:Work>
    </rdf:RDF>
  </metadata>
  <g
     inkscape:label="Layer 1"
     inkscape:groupmode="layer"
     id="layer1"
     transform="translate(-144.64285,-424.14792)">
    <rect
       style="opacity:1;fill:#fffcc8;fill-opacity:1;fill-rule:nonzero;stroke:#000000;stroke-width:5.901;stroke-linecap:round;stroke-linejoin:round;stroke-miterlimit:4;stroke-dasharray:none;stroke-opacity:1"
       id="rect4136"
       width="238.02785"
       height="169.09927"
       x="-665.16028"
       y="-316.70963"
       ry="1.1704255"
       transform="matrix(0,-1,-1,0,0,0)" />
    <rect
       style="opacity:1;fill:#fff300;fill-opacity:1;fill-rule:nonzero;stroke:#000000;stroke-width:5;stroke-linecap:round;stroke-linejoin:round;stroke-miterlimit:4;stroke-dasharray:none;stroke-opacity:1"
       id="rect4136-5"
       width="79.995636"
       height="168.25963"
       x="-507.50217"
       y="-316.24411"
       ry="1.164614"
       transform="matrix(0,-1,-1,0,0,0)" />
    <g
       style="font-style:normal;font-variant:normal;font-weight:300;font-stretch:normal;font-size:27.82101631px;line-height:125%;font-family:Moon;-inkscape-font-specification:'Moon, Light';text-align:start;letter-spacing:0px;word-spacing:0px;writing-mode:lr-tb;text-anchor:start;fill:#000000;fill-opacity:1;stroke:none;stroke-width:1px;stroke-linecap:butt;stroke-linejoin:miter;stroke-opacity:1"
       id="text4188">
      <path
         d="m 223.24363,473.60139 q 0,-0.33961 -0.24452,-0.57055 -0.23094,-0.24452 -0.57055,-0.24452 -0.33961,0 -0.57055,0.24452 -0.24452,0.23094 -0.24452,0.57055 l 0,17.79567 q 0,0.33961 0.24452,0.57055 0.23094,0.24452 0.57055,0.24452 0.33961,0 0.57055,-0.24452 0.24452,-0.23094 0.24452,-0.57055 l 0,-17.79567 z"
         style=""
         id="path4232" />
      <path
         d="m 229.18005,474.34854 3.70856,0 q 3.34178,0 5.71907,2.3637 2.37728,2.37728 2.37728,5.71906 0,3.34178 -2.37728,5.71907 -2.37729,2.3637 -5.73266,2.3637 l -3.69497,0.0543 0,-16.21987 z m -0.80149,17.86359 4.51005,-0.0543 q 4.02101,0 6.87375,-2.85274 2.85274,-2.85274 2.85274,-6.87375 0,-4.021 -2.85274,-6.87375 -2.85274,-2.85274 -6.87375,-2.85274 l -4.52363,0 q -0.33961,0 -0.57055,0.24452 -0.24452,0.24452 -0.24452,0.58414 l 0,17.86359 q 0,0.33961 0.24452,0.58413 0.23094,0.23094 0.57055,0.23094 l 0.0136,0 z"
         style=""
         id="path4234" />
    </g>
    <g
       style="font-style:normal;font-variant:normal;font-weight:300;font-stretch:normal;font-size:27.82101631px;line-height:311.99998856%;font-family:Moon;-inkscape-font-specification:'Moon, Light';text-align:start;letter-spacing:0px;word-spacing:0px;writing-mode:lr-tb;text-anchor:start;fill:#000000;fill-opacity:1;stroke:none;stroke-width:1px;stroke-linecap:butt;stroke-linejoin:miter;stroke-opacity:1"
       id="text4184">
      <path
         d="m 175.46701,452.26235 7.26317,0 q 0.19924,0 0.36225,0 0.0725,0 0.1449,0 2.28219,0 3.85799,1.39467 1.5758,1.37656 1.5758,3.40518 0,2.02862 -1.59391,3.45951 -1.61203,1.4309 -3.87611,1.4309 l -7.73409,0 0,-9.69026 z m 0,-11.91812 7.26317,-0.0362 q 2.3003,0 3.8761,1.37656 1.5758,1.39467 1.5758,3.40517 0,2.06484 -1.59391,3.53197 -1.59391,1.46712 -3.85799,1.46712 l -7.26317,0.0181 0,-9.76272 z m 7.73409,23.7819 q 3.16972,0 5.39757,-2.08295 2.24597,-2.06485 2.24597,-4.98098 0,-1.93805 -1.03242,-3.56819 -1.01431,-1.59391 -2.77124,-2.49955 1.53958,-0.97808 2.40899,-2.51765 0.90563,-1.5758 0.90563,-3.38707 0,-2.91613 -2.20974,-4.94475 -2.20975,-2.0105 -5.41568,-2.0105 l -8.34993,0.0362 q -0.45282,0 -0.77884,0.32603 -0.30792,0.30792 -0.30792,0.76073 l 0,23.7819 q 0,0.45282 0.32603,0.76073 0.30791,0.32603 0.76073,0.32603 l 8.82085,0 z"
         style="font-size:37.09468842px;line-height:311.99998856%"
         id="path4221" />
      <path
         d="m 198.0897,438.20694 q -0.45282,0 -0.77885,0.32603 -0.30791,0.30791 -0.30791,0.76073 l 0,23.74567 q 0,0.45282 0.30791,0.77884 0.32603,0.30792 0.77885,0.30792 l 12.82375,0 q 0.45281,0 0.76073,-0.30792 0.32602,-0.32602 0.32602,-0.77884 0,-0.4347 -0.32602,-0.76073 -0.30792,-0.30792 -0.76073,-0.30792 l -11.75511,0 0,-22.67702 q 0,-0.45282 -0.30791,-0.76073 -0.32603,-0.32603 -0.76073,-0.32603 z"
         style="font-size:37.09468842px;line-height:311.99998856%"
         id="path4223" />
      <path
         d="m 227.81254,440.30801 q 4.47382,0 7.64353,3.18782 3.18783,3.16971 3.18783,7.64354 0,4.47382 -3.18783,7.64353 -3.16971,3.16971 -7.64353,3.16971 -4.47382,0 -7.64354,-3.16971 -3.16971,-3.16971 -3.16971,-7.64353 0,-4.47383 3.16971,-7.64354 3.16972,-3.18782 7.64354,-3.18782 z m 0,23.81812 q 5.37945,0 9.18311,-3.80366 3.80365,-3.80365 3.80365,-9.1831 0,-5.37946 -3.80365,-9.18311 -3.80366,-3.80366 -9.18311,-3.80366 -5.37946,0 -9.18311,3.80366 -3.80365,3.80365 -3.80365,9.18311 0,5.37945 3.80365,9.1831 3.80365,3.80366 9.18311,3.80366 z"
         style="font-size:37.09468842px;line-height:311.99998856%"
         id="path4225" />
      <path
         d="m 258.45913,464.12613 q 5.05342,0 8.76652,-3.38706 0.34414,-0.30792 0.36225,-0.76074 0.0181,-0.45281 -0.2898,-0.77884 -0.30792,-0.34414 -0.76073,-0.36225 -0.45282,-0.0181 -0.77885,0.2898 -3.09726,2.80746 -7.29939,2.80746 -4.47382,0 -7.64354,-3.16971 -3.16971,-3.16971 -3.16971,-7.64354 0,-4.49193 3.16971,-7.66164 3.16972,-3.16972 7.64354,-3.16972 3.69498,0 6.61111,2.22786 0.34414,0.2898 0.79696,0.21735 0.45281,-0.0543 0.7245,-0.41659 0.27169,-0.34414 0.21735,-0.79696 -0.0543,-0.45281 -0.41659,-0.7245 -3.49574,-2.69879 -7.93333,-2.69879 -5.37946,0 -9.18311,3.82177 -3.82177,3.80366 -3.82177,9.20122 0,5.37946 3.82177,9.18311 3.80365,3.82177 9.18311,3.82177 z"
         style="font-size:37.09468842px;line-height:311.99998856%"
         id="path4227" />
      <path
         d="m 274.05411,463.945 q 0.45282,0 0.76073,-0.32602 0.32603,-0.30792 0.32603,-0.76074 l 0,-6.91902 3.22405,-3.40518 10.70457,11.26606 q 0.32603,0.32603 0.77884,0.32603 0.43471,0 0.74262,-0.2898 0.32603,-0.30792 0.34414,-0.76073 0,-0.45282 -0.30791,-0.76073 l -10.77703,-11.33852 10.41477,-10.94003 q 0.30792,-0.32603 0.28981,-0.77885 0,-0.4347 -0.32603,-0.74261 -0.32603,-0.30792 -0.77885,-0.30792 -0.4347,0.0181 -0.74261,0.34414 l -13.56637,14.27276 0,-13.63882 q 0,-0.4347 -0.32603,-0.76073 -0.30791,-0.30791 -0.76073,-0.30791 -0.4347,0 -0.76073,0.30791 -0.30792,0.32603 -0.30792,0.76073 l 0,23.67322 q 0,0.45282 0.30792,0.76074 0.32603,0.32602 0.76073,0.32602 z"
         style="font-size:37.09468842px;line-height:311.99998856%"
         id="path4229" />
    </g>
  </g>
</svg>
