<?xml version="1.0" encoding="UTF-8" standalone="no"?>
<!-- Created with Inkscape (http://www.inkscape.org/) -->

<svg
   xmlns:dc="http://purl.org/dc/elements/1.1/"
   xmlns:cc="http://creativecommons.org/ns#"
   xmlns:rdf="http://www.w3.org/1999/02/22-rdf-syntax-ns#"
   xmlns:svg="http://www.w3.org/2000/svg"
   xmlns="http://www.w3.org/2000/svg"
   xmlns:sodipodi="http://sodipodi.sourceforge.net/DTD/sodipodi-0.dtd"
   xmlns:inkscape="http://www.inkscape.org/namespaces/inkscape"
   width="113.97519mm"
   height="66.608078mm"
   viewBox="0 0 403.84909 236.01287"
   id="svg2"
   version="1.1"
   inkscape:version="0.91 r13725"
   sodipodi:docname="eraseOFF.svg">
  <defs
     id="defs4">
    <inkscape:perspective
       sodipodi:type="inkscape:persp3d"
       inkscape:vp_x="-221.00159 : 26.402375 : 1"
       inkscape:vp_y="0 : 1380.8077 : 0"
       inkscape:vp_z="806.44988 : 26.402375 : 1"
       inkscape:persp3d-origin="292.72414 : -215.78259 : 1"
       id="perspective4153" />
  </defs>
  <sodipodi:namedview
     id="base"
     pagecolor="#ffffff"
     bordercolor="#666666"
     borderopacity="1.0"
     inkscape:pageopacity="0.0"
     inkscape:pageshadow="2"
     inkscape:zoom="1.4"
     inkscape:cx="83.992146"
     inkscape:cy="177.82935"
     inkscape:document-units="px"
     inkscape:current-layer="layer1"
     showgrid="false"
     showguides="false"
     fit-margin-top="0"
     fit-margin-left="0"
     fit-margin-right="0"
     fit-margin-bottom="0"
     inkscape:window-width="1920"
     inkscape:window-height="1017"
     inkscape:window-x="-8"
     inkscape:window-y="-8"
     inkscape:window-maximized="1" />
  <metadata
     id="metadata7">
    <rdf:RDF>
      <cc:Work
         rdf:about="">
        <dc:format>image/svg+xml</dc:format>
        <dc:type
           rdf:resource="http://purl.org/dc/dcmitype/StillImage" />
        <dc:title></dc:title>
      </cc:Work>
    </rdf:RDF>
  </metadata>
  <g
     inkscape:label="Layer 1"
     inkscape:groupmode="layer"
     id="layer1"
     transform="translate(-120.31433,-352.17541)">
    <rect
       style="opacity:1;fill:#e3e3e3;fill-opacity:1;fill-rule:nonzero;stroke:#bbbbbb;stroke-width:5.84899998;stroke-linecap:round;stroke-linejoin:round;stroke-miterlimit:4;stroke-dasharray:none;stroke-opacity:1"
       id="rect4136"
       width="398.00009"
       height="115.15739"
       x="123.23883"
       y="470.10641"
       ry="0.84022701" />
    <rect
       style="opacity:1;fill:#e3e3e3;fill-opacity:1;fill-rule:nonzero;stroke:#bbbbbb;stroke-width:5.84899998;stroke-linecap:round;stroke-linejoin:round;stroke-miterlimit:4;stroke-dasharray:none;stroke-opacity:1"
       id="rect4136-0"
       width="398.00009"
       height="115.15739"
       x="123.23883"
       y="355.09991"
       ry="0.84022701" />
    <g
       id="g4155"
       style="opacity:1;fill:#e3e3e3;fill-opacity:1;fill-rule:nonzero;stroke:#bbbbbb;stroke-width:5.84899998;stroke-linecap:round;stroke-linejoin:round;stroke-miterlimit:4;stroke-dasharray:none;stroke-opacity:1"
       transform="translate(-1.329259,-3.3000371)">
      <path
         d="m 178.79621,429.98259 82.44064,-38.87869 0,31.66934 -82.44064,31.66491 z"
         style="fill:#e9e9ff;fill-rule:evenodd;stroke:none;stroke-width:1px;stroke-linecap:butt;stroke-linejoin:round;stroke-opacity:1"
         id="path4430"
         inkscape:connector-curvature="0" />
      <path
         d="m 133.64359,422.02601 0,25.93187 45.15262,6.48027 0,-24.45556 z"
         style="fill:#353564;fill-rule:evenodd;stroke:none;stroke-width:1px;stroke-linecap:butt;stroke-linejoin:round;stroke-opacity:1"
         id="path4432"
         inkscape:connector-curvature="0" />
      <path
         d="m 133.64359,422.02601 74.62322,-44.50687 52.97004,13.58476 -82.44064,38.87869 z"
         style="fill:#4d4d9f;fill-rule:evenodd;stroke:none;stroke-width:1px;stroke-linecap:butt;stroke-linejoin:round;stroke-opacity:1"
         id="path4434"
         inkscape:connector-curvature="0" />
      <path
         d="m 133.64359,447.95788 74.62322,-36.24881 52.97004,11.06417 -82.44064,31.66491 z"
         style="fill:#deafaf;fill-opacity:1;fill-rule:evenodd;stroke:none;stroke-width:1px;stroke-linecap:butt;stroke-linejoin:round;stroke-opacity:1"
         id="path4436"
         inkscape:connector-curvature="0" />
      <path
         d="m 208.26681,377.51914 0,34.18993 52.97004,11.06417 0,-31.66934 z"
         style="fill:#ffd7d7;fill-opacity:1;fill-rule:evenodd;stroke:none;stroke-width:1px;stroke-linecap:butt;stroke-linejoin:round;stroke-opacity:1"
         id="path4438"
         inkscape:connector-curvature="0" />
      <path
         d="m 133.64359,422.02601 74.62322,-44.50687 0,34.18993 -74.62322,36.24881 z"
         style="fill:#bf8686;fill-opacity:1;fill-rule:evenodd;stroke:none;stroke-width:1px;stroke-linecap:butt;stroke-linejoin:round;stroke-opacity:1"
         id="path4440"
         inkscape:connector-curvature="0" />
    </g>
    <g
       style="font-style:normal;font-variant:normal;font-weight:300;font-stretch:normal;font-size:40.73914719px;line-height:125%;font-family:Moon;-inkscape-font-specification:'Moon, Light';text-align:start;letter-spacing:0px;word-spacing:0px;writing-mode:lr-tb;text-anchor:start;fill:#000000;fill-opacity:1;stroke:none;stroke-width:1px;stroke-linecap:butt;stroke-linejoin:miter;stroke-opacity:1"
       id="text4183">
      <path
         d="m 286.33696,426.96167 q 0.4973,0 0.83547,-0.35806 0.35806,-0.33817 0.35806,-0.83547 0,-0.4973 -0.35806,-0.83547 -0.33817,-0.35806 -0.83547,-0.35806 l -14.60085,0 0,-10.70198 10.9208,0 q 0.4973,0 0.83547,-0.35806 0.35806,-0.33817 0.35806,-0.83547 0,-0.49731 -0.35806,-0.83547 -0.33817,-0.35806 -0.83547,-0.35806 l -10.9208,0 0,-10.70198 14.60085,0.0398 0,0 q 0.4973,0 0.83547,-0.33817 0.35806,-0.35806 0.35806,-0.85536 0,-0.47741 -0.35806,-0.83547 -0.33817,-0.35806 -0.83547,-0.35806 l -15.79438,-0.0398 q -0.47741,-0.0199 -0.83547,0.35805 -0.35806,0.33817 -0.35806,0.83548 l 0,26.17808 q 0,0.4973 0.35806,0.83547 0.33817,0.35806 0.83547,0.35806 l 15.79438,0 z"
         style="fill:#000000;fill-opacity:1"
         id="path4410" />
      <path
         d="m 307.90006,406.15447 q 0,2.16824 -1.71072,3.71983 -1.69084,1.55159 -4.11768,1.59138 l -7.95687,0 0,-10.64231 7.81762,0 q 2.46663,0 4.21714,1.57148 1.75051,1.55159 1.75051,3.75962 z m -14.9788,-7.67838 q -0.47741,0 -0.83547,0.33817 -0.33816,0.33817 -0.33816,0.83547 l 0,25.93938 q 0,0.47741 0.33816,0.83547 0.35806,0.33817 0.83547,0.33817 0.49731,0 0.83548,-0.33817 0.35805,-0.35806 0.35805,-0.83547 l 0,-11.75627 6.64399,0 6.14667,12.47239 q 0.31828,0.65644 1.05429,0.65644 0.27849,0 0.51719,-0.11935 0.43763,-0.21882 0.59677,-0.67634 0.15914,-0.45752 -0.0597,-0.89514 l -5.66926,-11.55735 q 2.96393,-0.45752 4.91336,-2.58598 1.98922,-2.14835 1.98922,-4.97304 0,-3.18275 -2.42685,-5.43056 -2.44673,-2.24782 -5.88808,-2.24782 l -9.01115,0 z"
         style="fill:#000000;fill-opacity:1"
         id="path4412" />
      <path
         d="m 320.43212,417.91074 6.28593,-15.15783 6.28592,15.15783 -12.57185,0 z m -4.99293,8.95147 q 0.21881,0.0995 0.45752,0.0995 0.79569,0 1.09407,-0.73601 l 2.46663,-5.92786 14.52127,0 2.46663,5.92786 q 0.29838,0.73601 1.09407,0.73601 0.23871,0 0.45752,-0.0995 0.45752,-0.17903 0.63655,-0.63655 0.19892,-0.45752 0,-0.91504 l -2.76501,-6.66387 0,-0.0199 -8.05633,-19.43464 q -0.0398,-0.0995 -0.0995,-0.21881 0,0.0199 -0.0796,-0.0796 -0.0597,-0.0796 -0.0796,-0.0995 -0.0199,0 -0.0995,-0.0796 -0.0796,-0.0597 -0.0796,-0.0597 -0.19892,-0.13924 -0.43763,-0.17903 0.0199,0 -0.0995,0 -0.0995,-0.0199 -0.11935,-0.0199 -0.0199,0 -0.13925,0.0199 -0.0995,0 -0.0995,0 -0.21881,0.0398 -0.41774,0.17903 0.0199,-0.0199 -0.0796,0.0597 -0.0796,0.0597 -0.0995,0.0796 -0.0199,0.0199 -0.0796,0.0995 -0.0796,0.0796 -0.0796,0.0796 -0.0597,0.11935 -0.0995,0.21881 l -8.05633,19.43464 0,0.0199 -2.76501,6.66387 q -0.19892,0.45752 0,0.91504 0.17903,0.45752 0.63655,0.63655 z"
         style="fill:#000000;fill-opacity:1"
         id="path4414" />
      <path
         d="m 352.25959,426.96167 q -3.14296,0 -5.60959,-1.29299 -2.96393,-1.57148 -3.73973,-4.53541 -0.11935,-0.45752 0.11935,-0.89515 0.2586,-0.41774 0.73601,-0.53709 0.45752,-0.11935 0.89515,0.11935 0.41774,0.2586 0.53709,0.71612 0.53709,2.06879 2.7849,3.16286 1.86987,0.89514 4.27682,0.89514 2.60587,0 4.47573,-1.67094 1.86987,-1.67094 1.98922,-4.07789 0.0796,-1.73062 -1.19353,-3.06339 -1.73062,-1.84998 -5.51013,-1.90965 -0.4973,0 -0.83547,-0.35806 -0.33817,-0.35806 -0.33817,-0.83547 0.0199,-0.49731 0.37795,-0.83547 0.33817,-0.33817 0.83548,-0.33817 4.77411,0.0796 7.20096,2.66555 1.94943,2.04889 1.81018,4.77412 -0.13924,3.36177 -2.70533,5.68916 -2.5462,2.32738 -6.10689,2.32738 z m -0.35806,-13.08904 q -4.77412,-0.0597 -7.20096,-2.64566 -1.94944,-2.06878 -1.83008,-4.79401 0.15913,-3.36178 2.72522,-5.68916 2.5462,-2.32738 6.1069,-2.32738 3.14296,0 5.60959,1.31288 2.96393,1.55159 3.73972,4.51552 0.11936,0.47741 -0.11935,0.89515 -0.2586,0.41773 -0.73601,0.53709 -0.47741,0.13924 -0.89515,-0.11936 -0.41773,-0.2387 -0.53709,-0.71611 -0.53708,-2.06879 -2.7849,-3.14297 -1.86986,-0.91503 -4.27681,-0.91503 -2.60588,0 -4.47574,1.67094 -1.86986,1.67094 -1.98922,4.09778 -0.0796,1.71073 1.19353,3.0435 1.73062,1.84997 5.51013,1.90965 0.49731,0.0199 0.83547,0.35806 0.33817,0.35806 0.33817,0.85536 -0.0199,0.47741 -0.35806,0.81558 -0.35806,0.33817 -0.83547,0.33817 l -0.0199,0 z"
         style="fill:#000000;fill-opacity:1"
         id="path4416" />
      <path
         d="m 384.86284,426.96167 q 0.4973,0 0.83547,-0.35806 0.35806,-0.33817 0.35806,-0.83547 0,-0.4973 -0.35806,-0.83547 -0.33817,-0.35806 -0.83547,-0.35806 l -14.60085,0 0,-10.70198 10.9208,0 q 0.4973,0 0.83547,-0.35806 0.35806,-0.33817 0.35806,-0.83547 0,-0.49731 -0.35806,-0.83547 -0.33817,-0.35806 -0.83547,-0.35806 l -10.9208,0 0,-10.70198 14.60085,0.0398 0,0 q 0.4973,0 0.83547,-0.33817 0.35806,-0.35806 0.35806,-0.85536 0,-0.47741 -0.35806,-0.83547 -0.33817,-0.35806 -0.83547,-0.35806 l -15.79438,-0.0398 q -0.47741,-0.0199 -0.83547,0.35805 -0.35806,0.33817 -0.35806,0.83548 l 0,26.17808 q 0,0.4973 0.35806,0.83547 0.33817,0.35806 0.83547,0.35806 l 15.79438,0 z"
         style="fill:#000000;fill-opacity:1"
         id="path4418" />
      <path
         d="m 403.04427,403.94644 10.68209,17.64435 q 0,0 0.0199,0.0199 0,0.0199 0,0.0199 0.0398,0.0398 0.0796,0.0995 0.0398,0.0398 0.0796,0.0796 0.0398,0.0398 0.0796,0.0796 0.0597,0.0398 0.0995,0.0796 0.0995,0.0597 0.0398,0.0199 0.0199,0 0.0199,0.0199 0.0199,0 0.0398,0 0.0597,0.0398 0.11936,0.0597 0.0398,0.0199 0.0995,0.0398 0.0597,0.0199 0.11935,0.0199 0.0398,0.0199 0.0995,0.0199 0.0597,0.0199 0.11935,0.0199 0.0597,0 0.11936,-0.0199 0.0597,0 0.0995,-0.0199 0.0597,0 0.11935,-0.0199 0.0597,-0.0199 0.0995,-0.0398 0.0597,-0.0199 0.11936,-0.0597 0.0796,-0.0398 0.0597,-0.0199 -0.0597,0.0398 0.0398,-0.0199 0.0398,-0.0398 0.0995,-0.0796 0.0398,-0.0398 0.0796,-0.0796 0.0199,-0.0199 0.0796,-0.0796 0.0398,-0.0597 0.0796,-0.0995 0,-0.0199 0,-0.0199 0.0199,-0.0199 0.0199,-0.0199 l 10.6821,-17.64435 0,21.8217 q 0,0.4973 0.33816,0.85536 0.35806,0.33817 0.83547,0.33817 0.49731,0 0.83547,-0.33817 0.35806,-0.35806 0.35806,-0.85536 l 0,-26.07862 q 0,-0.89515 -0.87525,-1.13386 -0.85537,-0.2387 -1.33278,0.53709 l -11.85573,19.59378 -11.85572,-19.59378 q -0.47742,-0.77579 -1.33278,-0.53709 -0.87525,0.23871 -0.87525,1.13386 l 0,26.07862 q 0,0.4973 0.33816,0.85536 0.35806,0.33817 0.85537,0.33817 0.47741,0 0.83547,-0.33817 0.33816,-0.35806 0.33816,-0.85536 l 0,-21.8217 z"
         style="fill:#000000;fill-opacity:1"
         id="path4420" />
      <path
         d="m 447.30433,400.80348 q 4.91336,0 8.39449,3.50102 3.50102,3.48113 3.50102,8.39449 0,4.91336 -3.50102,8.39449 -3.48113,3.48113 -8.39449,3.48113 -4.91337,0 -8.3945,-3.48113 -3.48112,-3.48113 -3.48112,-8.39449 0,-4.91336 3.48112,-8.39449 3.48113,-3.50102 8.3945,-3.50102 z m 0,26.15819 q 5.90797,0 10.08532,-4.17735 4.17736,-4.17736 4.17736,-10.08533 0,-5.90797 -4.17736,-10.08533 -4.17735,-4.17735 -10.08532,-4.17735 -5.90798,0 -10.08533,4.17735 -4.17735,4.17736 -4.17735,10.08533 0,5.90797 4.17735,10.08533 4.17735,4.17735 10.08533,4.17735 z"
         style="fill:#000000;fill-opacity:1"
         id="path4422" />
      <path
         d="m 469.64323,400.80348 5.43056,0 q 4.89347,0 8.3746,3.46123 3.48113,3.48113 3.48113,8.3746 0,4.89348 -3.48113,8.3746 -3.48113,3.46124 -8.3945,3.46124 l -5.41066,0.0796 0,-23.75124 z m -1.17364,26.15819 6.6042,-0.0796 q 5.88808,0 10.06543,-4.17735 4.17735,-4.17736 4.17735,-10.06544 0,-5.88808 -4.17735,-10.06543 -4.17735,-4.17735 -10.06543,-4.17735 l -6.62409,0 q -0.49731,0 -0.83547,0.35805 -0.35806,0.35806 -0.35806,0.85537 l 0,26.15819 q 0,0.4973 0.35806,0.85536 0.33816,0.33817 0.83547,0.33817 l 0.0199,0 z"
         style="fill:#000000;fill-opacity:1"
         id="path4424" />
      <path
         d="m 511.8345,426.96167 q 0.49731,0 0.83547,-0.35806 0.35806,-0.33817 0.35806,-0.83547 0,-0.4973 -0.35806,-0.83547 -0.33816,-0.35806 -0.83547,-0.35806 l -14.60084,0 0,-10.70198 10.92079,0 q 0.49731,0 0.83547,-0.35806 0.35806,-0.33817 0.35806,-0.83547 0,-0.49731 -0.35806,-0.83547 -0.33816,-0.35806 -0.83547,-0.35806 l -10.92079,0 0,-10.70198 14.60084,0.0398 0,0 q 0.49731,0 0.83547,-0.33817 0.35806,-0.35806 0.35806,-0.85536 0,-0.47741 -0.35806,-0.83547 -0.33816,-0.35806 -0.83547,-0.35806 l -15.79437,-0.0398 q -0.47742,-0.0199 -0.83547,0.35805 -0.35806,0.33817 -0.35806,0.83548 l 0,26.17808 q 0,0.4973 0.35806,0.83547 0.33816,0.35806 0.83547,0.35806 l 15.79437,0 z"
         style="fill:#000000;fill-opacity:1"
         id="path4426" />
    </g>
    <rect
       style="opacity:1;fill:#919191;fill-opacity:1;fill-rule:nonzero;stroke:#bbbbbb;stroke-width:5.84899998;stroke-linecap:round;stroke-linejoin:round;stroke-miterlimit:4;stroke-dasharray:none;stroke-opacity:1"
       id="rect4187"
       width="353.55341"
       height="72.73098"
       x="144.95689"
       y="493.74783"
       ry="0.84022701" />
    <rect
       style="opacity:1;fill:#fbfbfb;fill-opacity:1;fill-rule:nonzero;stroke:#bbbbbb;stroke-width:5;stroke-linecap:round;stroke-linejoin:round;stroke-miterlimit:4;stroke-dasharray:none;stroke-opacity:1"
       id="rect4187-5"
       width="184.91618"
       height="74.304459"
       x="144.53239"
       y="492.59885"
       ry="0.85840464" />
    <g
       style="font-style:normal;font-variant:normal;font-weight:300;font-stretch:normal;font-size:22.5px;line-height:125%;font-family:Moon;-inkscape-font-specification:'Moon, Light';text-align:start;letter-spacing:0px;word-spacing:0px;writing-mode:lr-tb;text-anchor:start;fill:#000000;fill-opacity:1;stroke:none;stroke-width:1px;stroke-linecap:butt;stroke-linejoin:miter;stroke-opacity:1"
       id="text4204">
      <path
         d="m 197.59839,506.46692 q 8.44238,0 14.42383,6.01562 6.01562,5.98145 6.01562,14.42383 0,8.44238 -6.01562,14.42383 -5.98145,5.98145 -14.42383,5.98145 -8.44238,0 -14.42383,-5.98145 -5.98144,-5.98145 -5.98144,-14.42383 0,-8.44238 5.98144,-14.42383 5.98145,-6.01562 14.42383,-6.01562 z m 0,44.94629 q 10.15137,0 17.3291,-7.17774 7.17773,-7.17773 7.17773,-17.3291 0,-10.15137 -7.17773,-17.3291 -7.17773,-7.17773 -17.3291,-7.17773 -10.15137,0 -17.3291,7.17773 -7.17774,7.17773 -7.17774,17.3291 0,10.15137 7.17774,17.3291 7.17773,7.17774 17.3291,7.17774 z"
         style="font-size:70px"
         id="path4403" />
      <path
         d="m 236.01636,528.92297 18.76465,0 q 0.85449,0 1.43554,-0.61523 0.61524,-0.58106 0.61524,-1.43555 0,-0.85449 -0.61524,-1.43554 -0.58105,-0.61524 -1.43554,-0.61524 l -18.76465,0 0,-18.38867 25.08789,0.0684 0,0 q 0.85449,0 1.43554,-0.58106 0.61524,-0.61523 0.61524,-1.46972 0,-0.82032 -0.61524,-1.43555 -0.58105,-0.61523 -1.43554,-0.61523 l -27.13867,-0.0684 q -0.78614,-0.0342 -1.43555,0.61523 -0.61524,0.58106 -0.61524,1.43555 l 0,44.98047 q 0,0.85449 0.61524,1.43554 0.58105,0.61524 1.43555,0.61524 0.85449,0 1.43554,-0.61524 0.61524,-0.58105 0.61524,-1.43554 l 0,-20.43946 z"
         style="font-size:70px"
         id="path4405" />
      <path
         d="m 273.75073,528.92297 18.76465,0 q 0.85449,0 1.43555,-0.61523 0.61523,-0.58106 0.61523,-1.43555 0,-0.85449 -0.61523,-1.43554 -0.58106,-0.61524 -1.43555,-0.61524 l -18.76465,0 0,-18.38867 25.08789,0.0684 0,0 q 0.8545,0 1.43555,-0.58106 0.61523,-0.61523 0.61523,-1.46972 0,-0.82032 -0.61523,-1.43555 -0.58105,-0.61523 -1.43555,-0.61523 l -27.13867,-0.0684 q -0.78613,-0.0342 -1.43555,0.61523 -0.61523,0.58106 -0.61523,1.43555 l 0,44.98047 q 0,0.85449 0.61523,1.43554 0.58106,0.61524 1.43555,0.61524 0.85449,0 1.43555,-0.61524 0.61523,-0.58105 0.61523,-1.43554 l 0,-20.43946 z"
         style="font-size:70px"
         id="path4407" />
    </g>
  </g>
</svg>
