<?xml version="1.0" encoding="UTF-8" standalone="no"?>
<!-- Created with Inkscape (http://www.inkscape.org/) -->

<svg
   xmlns:dc="http://purl.org/dc/elements/1.1/"
   xmlns:cc="http://creativecommons.org/ns#"
   xmlns:rdf="http://www.w3.org/1999/02/22-rdf-syntax-ns#"
   xmlns:svg="http://www.w3.org/2000/svg"
   xmlns="http://www.w3.org/2000/svg"
   xmlns:sodipodi="http://sodipodi.sourceforge.net/DTD/sodipodi-0.dtd"
   xmlns:inkscape="http://www.inkscape.org/namespaces/inkscape"
   width="48.576218mm"
   height="38.117226mm"
   viewBox="0 0 172.12046 135.06103"
   id="svg2"
   version="1.1"
   inkscape:version="0.91 r13725"
   sodipodi:docname="snapGridUI.svg">
  <defs
     id="defs4" />
  <sodipodi:namedview
     id="base"
     pagecolor="#ffffff"
     bordercolor="#666666"
     borderopacity="1.0"
     inkscape:pageopacity="0.0"
     inkscape:pageshadow="2"
     inkscape:zoom="2.8"
     inkscape:cx="35.829161"
     inkscape:cy="50.37802"
     inkscape:document-units="px"
     inkscape:current-layer="layer1"
     showgrid="false"
     fit-margin-top="0"
     fit-margin-left="0"
     fit-margin-right="0"
     fit-margin-bottom="0"
     inkscape:window-width="1920"
     inkscape:window-height="1017"
     inkscape:window-x="-8"
     inkscape:window-y="-8"
     inkscape:window-maximized="1" />
  <metadata
     id="metadata7">
    <rdf:RDF>
      <cc:Work
         rdf:about="">
        <dc:format>image/svg+xml</dc:format>
        <dc:type
           rdf:resource="http://purl.org/dc/dcmitype/StillImage" />
        <dc:title></dc:title>
      </cc:Work>
    </rdf:RDF>
  </metadata>
  <g
     inkscape:label="Layer 1"
     inkscape:groupmode="layer"
     id="layer1"
     transform="translate(-145.88238,-423.45801)">
    <rect
       style="opacity:1;fill:#ffc8c8;fill-opacity:1;fill-rule:nonzero;stroke:#db0000;stroke-width:5.850492;stroke-linecap:round;stroke-linejoin:round;stroke-miterlimit:4;stroke-dasharray:none;stroke-opacity:1"
       id="rect4688-6"
       width="165.9576"
       height="78.686607"
       x="148.98955"
       y="476.9072"
       ry="1.374518" />
    <rect
       style="opacity:1;fill:#ffc8c8;fill-opacity:1;fill-rule:nonzero;stroke:#db0000;stroke-width:5.48899984;stroke-linecap:round;stroke-linejoin:round;stroke-miterlimit:4;stroke-dasharray:none;stroke-opacity:1"
       id="rect4688"
       width="166.63145"
       height="62.52972"
       x="148.62688"
       y="426.20251"
       ry="1.0922853" />
    <g
       style="font-style:normal;font-variant:normal;font-weight:300;font-stretch:normal;font-size:32.76992035px;line-height:125%;font-family:Moon;-inkscape-font-specification:'Moon, Light';text-align:start;letter-spacing:0px;word-spacing:0px;writing-mode:lr-tb;text-anchor:start;fill:#000000;fill-opacity:1;stroke:none;stroke-width:1px;stroke-linecap:butt;stroke-linejoin:miter;stroke-opacity:1"
       id="text4744"
       transform="translate(-0.301964,-10)">
      <path
         d="m 163.27316,479.27499 q -2.52815,0 -4.51227,-1.04006 -2.38414,-1.26407 -3.00817,-3.64821 -0.096,-0.36802 0.096,-0.72004 0.20801,-0.33602 0.59204,-0.43203 0.36802,-0.096 0.72004,0.096 0.33602,0.20801 0.43202,0.57603 0.43203,1.6641 2.24013,2.54415 1.50409,0.72004 3.44021,0.72004 2.09612,0 3.60021,-1.34408 1.50409,-1.34408 1.60009,-3.28019 0.064,-1.39208 -0.96006,-2.46414 -1.39208,-1.48809 -4.43225,-1.53609 -0.40003,0 -0.67204,-0.28802 -0.27202,-0.28802 -0.27202,-0.67204 0.016,-0.40002 0.30402,-0.67204 0.27201,-0.27201 0.67204,-0.27201 3.84022,0.064 5.79234,2.14412 1.56809,1.6481 1.45608,3.84023 -0.112,2.70415 -2.17613,4.57626 -2.04812,1.87211 -4.91228,1.87211 z m -0.28802,-10.52861 q -3.84023,-0.048 -5.79234,-2.12813 -1.56809,-1.6641 -1.47209,-3.85622 0.12801,-2.70416 2.19213,-4.57627 2.04812,-1.87211 4.91229,-1.87211 2.52815,0 4.51226,1.05606 2.38414,1.24807 3.00818,3.63221 0.096,0.38403 -0.096,0.72005 -0.20802,0.33601 -0.59204,0.43202 -0.38402,0.11201 -0.72004,-0.096 -0.33602,-0.19201 -0.43203,-0.57603 -0.43202,-1.6641 -2.24013,-2.52815 -1.50409,-0.73604 -3.4402,-0.73604 -2.09612,0 -3.60021,1.34408 -1.50409,1.34408 -1.60009,3.29619 -0.064,1.37608 0.96005,2.44815 1.39208,1.48808 4.43226,1.53609 0.40002,0.016 0.67204,0.28801 0.27202,0.28802 0.27202,0.68804 -0.016,0.38403 -0.28802,0.65604 -0.28802,0.27202 -0.67204,0.27202 l -0.016,0 z"
         id="path4764"
         inkscape:connector-curvature="0" />
      <path
         d="m 191.05078,478.93897 q 0.048,0.048 0.096,0.096 0.048,0.032 0.064,0.048 0.048,0.032 0.11201,0.064 0.048,0.032 0.064,0.048 0.048,0.016 0.12801,0.048 0.064,0.016 0.064,0.016 0.096,0.016 0.19201,0.016 l 0,0 q 0.08,0 0.17601,-0.016 0.016,0 0.064,-0.016 0.064,-0.016 0.11201,-0.032 0.032,-0.016 0.064,-0.032 0.048,-0.016 0.096,-0.048 0.032,-0.016 0.048,-0.032 0.064,-0.048 0.032,-0.032 -0.032,0.032 0.048,-0.032 0.048,-0.048 0.064,-0.064 0.032,-0.032 0.064,-0.08 0.032,-0.048 0.048,-0.08 0.032,-0.032 0.048,-0.08 0.016,-0.048 0.032,-0.08 0.016,-0.032 0.032,-0.096 0.016,-0.048 0.016,-0.08 0.016,-0.048 0.016,-0.096 0,-0.096 0,-0.064 l 0,-21.07324 q 0,-0.40002 -0.27201,-0.67204 -0.28802,-0.28801 -0.68804,-0.28801 -0.38403,0 -0.67204,0.28801 -0.27202,0.27202 -0.27202,0.67204 l 0,18.27307 -14.65686,-18.8651 q -0.41602,-0.54403 -1.07206,-0.32002 -0.64004,0.22401 -0.64004,0.91205 l 0,21.07324 q 0,0.40002 0.28802,0.67204 0.27202,0.28801 0.67204,0.28801 0.40002,0 0.67204,-0.28801 0.28802,-0.27202 0.28802,-0.67204 l 0,-18.27307 14.64085,18.8651 q 0,0 0.016,0.016 0.016,0.016 0.016,0.016 z"
         id="path4766"
         inkscape:connector-curvature="0" />
      <path
         d="m 202.13943,471.99457 5.0563,-12.19272 5.05629,12.19272 -10.11259,0 z m -4.01623,7.20042 q 0.17601,0.08 0.36802,0.08 0.64004,0 0.88005,-0.59203 l 1.98412,-4.76828 11.68068,0 1.98412,4.76828 q 0.24001,0.59203 0.88005,0.59203 0.19201,0 0.36802,-0.08 0.36802,-0.14401 0.51203,-0.51203 0.16001,-0.36802 0,-0.73604 l -2.22413,-5.36032 0,-0.016 -6.48038,-15.63292 q -0.032,-0.08 -0.08,-0.17601 0,0.016 -0.064,-0.064 -0.048,-0.064 -0.064,-0.08 -0.016,0 -0.08,-0.064 -0.064,-0.048 -0.064,-0.048 -0.16001,-0.11201 -0.35202,-0.14401 0.016,0 -0.08,0 -0.08,-0.016 -0.096,-0.016 -0.016,0 -0.11201,0.016 -0.08,0 -0.08,0 -0.17601,0.032 -0.33602,0.14401 0.016,-0.016 -0.064,0.048 -0.064,0.048 -0.08,0.064 -0.016,0.016 -0.064,0.08 -0.064,0.064 -0.064,0.064 -0.048,0.096 -0.08,0.17601 l -6.48038,15.63292 0,0.016 -2.22413,5.36032 q -0.16001,0.36802 0,0.73604 0.14401,0.36802 0.51203,0.51203 z"
         id="path4768"
         inkscape:connector-curvature="0" />
      <path
         d="m 222.89265,466.87427 0,-8.64051 6.33637,0 q 2.00012,0 3.4242,1.26407 1.42409,1.26408 1.42409,3.05618 0,1.76011 -1.39209,3.02418 -1.37608,1.24807 -3.32819,1.29608 l -6.46438,0 z m -0.96006,-10.56062 q -0.40002,0 -0.67204,0.28802 -0.28801,0.27201 -0.28801,0.67203 l 0,21.04124 q 0,0.40002 0.28801,0.67204 0.27202,0.28801 0.67204,0.28801 0.40003,0 0.67204,-0.28801 0.28802,-0.27202 0.28802,-0.67204 l 0,-9.53656 6.28837,0 q 0.096,0.016 0.048,0.016 0.032,0 0.064,-0.016 l 0.19201,0 q 0.032,0 0.128,0 2.65616,-0.14401 4.51227,-1.93611 1.85611,-1.80811 1.85611,-4.28826 0,-2.57615 -1.96812,-4.40025 -1.98411,-1.84011 -4.78428,-1.84011 l -7.29643,0 z"
         id="path4770"
         inkscape:connector-curvature="0" />
      <path
         d="m 249.63021,479.27499 q -4.75227,0 -8.11247,-3.37619 -3.3762,-3.3602 -3.3762,-8.11248 0,-4.75228 3.3762,-8.12848 3.3602,-3.36019 8.11247,-3.36019 3.90423,0 6.99241,2.36814 0.32002,0.25601 0.36803,0.64003 0.064,0.40003 -0.19202,0.72005 -0.24001,0.32001 -0.64003,0.36802 -0.38403,0.048 -0.70404,-0.19201 -2.57616,-1.98412 -5.82435,-1.98412 -3.95223,0 -6.75239,2.81616 -2.80017,2.80017 -2.80017,6.7524 0,3.95223 2.80017,6.7524 2.80016,2.80016 6.75239,2.80016 3.71222,0 6.43238,-2.48014 0.30402,-0.27202 0.70404,-0.25602 0.40003,0.016 0.67204,0.32002 0.25602,0.28802 0.24002,0.68804 -0.016,0.40002 -0.30402,0.67204 -3.2962,2.99217 -7.74446,2.99217 z m 7.28043,0 q -0.40002,0 -0.68804,-0.28801 -0.27202,-0.27202 -0.27202,-0.67204 l 0,-10.1446 -8.03247,0 q -0.40002,0 -0.68804,-0.27201 -0.28801,-0.28802 -0.28801,-0.68804 0,-0.40003 0.28801,-0.67204 0.28802,-0.28802 0.68804,-0.28802 l 8.99253,0 q 0.40002,0 0.68804,0.28802 0.27202,0.27201 0.27202,0.67204 l 0,11.10465 q 0,0.40002 -0.27202,0.67204 -0.28802,0.28801 -0.68804,0.28801 z"
         id="path4772"
         inkscape:connector-curvature="0" />
      <path
         d="m 275.32773,462.53801 q 0,1.74411 -1.37609,2.99218 -1.36007,1.24807 -3.31219,1.28007 l -6.40037,0 0,-8.5605 6.28836,0 q 1.98412,0 3.3922,1.26408 1.40809,1.24807 1.40809,3.02417 z m -12.04871,-6.17636 q -0.38402,0 -0.67204,0.27202 -0.27202,0.27201 -0.27202,0.67204 l 0,20.86522 q 0,0.38402 0.27202,0.67204 0.28802,0.27201 0.67204,0.27201 0.40002,0 0.67204,-0.27201 0.28802,-0.28802 0.28802,-0.67204 l 0,-9.45655 5.34431,0 4.94429,10.03258 q 0.25601,0.52803 0.84805,0.52803 0.22401,0 0.41602,-0.096 0.35202,-0.17601 0.48003,-0.54403 0.12801,-0.36803 -0.048,-0.72005 l -4.56027,-9.29654 q 2.38414,-0.36802 3.95223,-2.08012 1.6001,-1.7281 1.6001,-4.00024 0,-2.56015 -1.95212,-4.36825 -1.96811,-1.80811 -4.73628,-1.80811 l -7.24842,0 z"
         id="path4774"
         inkscape:connector-curvature="0" />
      <path
         d="m 284.17624,457.35371 q 0,-0.40002 -0.28801,-0.67204 -0.27202,-0.28802 -0.67204,-0.28802 -0.40003,0 -0.67204,0.28802 -0.28802,0.27202 -0.28802,0.67204 l 0,20.96123 q 0,0.40002 0.28802,0.67204 0.27201,0.28801 0.67204,0.28801 0.40002,0 0.67204,-0.28801 0.28801,-0.27202 0.28801,-0.67204 l 0,-20.96123 z"
         id="path4776"
         inkscape:connector-curvature="0" />
      <path
         d="m 292.60874,458.23376 4.36826,0 q 3.93623,0 6.73639,2.78416 2.80017,2.80017 2.80017,6.7364 0,3.93623 -2.80017,6.73639 -2.80016,2.78417 -6.75239,2.78417 l -4.35226,0.064 0,-19.10512 z m -0.94405,21.04123 5.31231,-0.064 q 4.73628,0 8.09647,-3.3602 3.3602,-3.36019 3.3602,-8.09647 0,-4.73628 -3.3602,-8.09648 -3.36019,-3.36019 -8.09647,-3.36019 l -5.32831,0 q -0.40003,0 -0.67204,0.28801 -0.28802,0.28802 -0.28802,0.68804 l 0,21.04124 q 0,0.40002 0.28802,0.68804 0.27201,0.27201 0.67204,0.27201 l 0.016,0 z"
         id="path4778"
         inkscape:connector-curvature="0" />
    </g>
  </g>
</svg>
