<?xml version="1.0" encoding="UTF-8" standalone="no"?>
<!-- Created with Inkscape (http://www.inkscape.org/) -->

<svg
   xmlns:dc="http://purl.org/dc/elements/1.1/"
   xmlns:cc="http://creativecommons.org/ns#"
   xmlns:rdf="http://www.w3.org/1999/02/22-rdf-syntax-ns#"
   xmlns:svg="http://www.w3.org/2000/svg"
   xmlns="http://www.w3.org/2000/svg"
   xmlns:sodipodi="http://sodipodi.sourceforge.net/DTD/sodipodi-0.dtd"
   xmlns:inkscape="http://www.inkscape.org/namespaces/inkscape"
   width="53.722721mm"
   height="62.607098mm"
   viewBox="0 0 190.35611 221.83617"
   id="svg2"
   version="1.1"
   inkscape:version="0.91 r13725"
   sodipodi:docname="wallSelect.svg">
  <defs
     id="defs4" />
  <sodipodi:namedview
     id="base"
     pagecolor="#ffffff"
     bordercolor="#666666"
     borderopacity="1.0"
     inkscape:pageopacity="0.0"
     inkscape:pageshadow="2"
     inkscape:zoom="1.979899"
     inkscape:cx="101.0283"
     inkscape:cy="226.86114"
     inkscape:document-units="px"
     inkscape:current-layer="layer1"
     showgrid="false"
     fit-margin-top="0"
     fit-margin-left="0"
     fit-margin-right="0"
     fit-margin-bottom="0"
     inkscape:window-width="757"
     inkscape:window-height="405"
     inkscape:window-x="104"
     inkscape:window-y="104"
     inkscape:window-maximized="0" />
  <metadata
     id="metadata7">
    <rdf:RDF>
      <cc:Work
         rdf:about="">
        <dc:format>image/svg+xml</dc:format>
        <dc:type
           rdf:resource="http://purl.org/dc/dcmitype/StillImage" />
        <dc:title></dc:title>
      </cc:Work>
    </rdf:RDF>
  </metadata>
  <g
     inkscape:label="Layer 1"
     inkscape:groupmode="layer"
     id="layer1"
     transform="translate(-133.89468,-337.67163)">
    <path
       sodipodi:type="star"
       style="opacity:1;fill:#18ff00;fill-opacity:1;fill-rule:nonzero;stroke:#ffffff;stroke-width:5.90100002;stroke-linecap:round;stroke-linejoin:round;stroke-miterlimit:4;stroke-dasharray:none;stroke-opacity:1"
       id="path4180"
       sodipodi:sides="5"
       sodipodi:cx="230.36884"
       sodipodi:cy="468.67078"
       sodipodi:r1="49.746807"
       sodipodi:r2="40.246014"
       sodipodi:arg1="1.6354543"
       sodipodi:arg2="2.2637728"
       inkscape:flatsided="true"
       inkscape:rounded="-4.5"
       inkscape:randomized="0"
       d="m 227.15455,518.31363 c 262.61405,17.0038 -109.97278,-292.3746 -44.99215,-37.35934 64.98064,255.01527 244.08132,-194.93904 21.62751,-54.33474 -222.453809,140.60431 260.82333,171.89565 58.35868,3.77862 -202.464652,-168.11702 -82.88364,301.1764 14.44014,56.67006 97.32377,-244.50634 -312.048231,14.24161 -49.43418,31.2454 z"
       inkscape:transform-center-x="1.8488103"
       inkscape:transform-center-y="-0.10997132"
       transform="matrix(0.8660254,0.5,-0.5,0.8660254,264.17597,-52.963925)" />
    <g
       style="font-style:normal;font-variant:normal;font-weight:300;font-stretch:normal;font-size:22.5px;line-height:125%;font-family:Moon;-inkscape-font-specification:'Moon, Light';text-align:start;letter-spacing:0px;word-spacing:0px;writing-mode:lr-tb;text-anchor:start;fill:#000000;fill-opacity:1;stroke:none;stroke-width:1px;stroke-linecap:butt;stroke-linejoin:miter;stroke-opacity:1"
       id="text4719">
      <path
         d="m 167.3122,347.71686 q -0.30884,-0.10743 -0.60425,0.0403 -0.30884,0.1477 -0.41626,0.45654 l -5.45166,15.52246 -5.45166,-15.52246 q 0.0268,0.0403 -0.0134,-0.0403 -0.0134,-0.0403 -0.0403,-0.0806 -0.0134,-0.0268 -0.0403,-0.0537 -0.0134,-0.0403 -0.0403,-0.0671 -0.0269,-0.0268 -0.0537,-0.0537 -0.0269,-0.0269 -0.0537,-0.0537 -0.0403,-0.0268 -0.0671,-0.0537 -0.0269,-0.0134 -0.0671,-0.0403 -0.0269,-0.0134 -0.0671,-0.0269 -0.0134,-0.0134 -0.0268,-0.0134 -0.0134,-0.0134 -0.0134,-0.0134 0.0134,0.0134 -0.0403,0 -0.0269,-0.0134 -0.0806,-0.0269 -0.0537,0 -0.0671,-0.0134 -0.0268,0 -0.0806,0 -0.0537,0 -0.0806,0 -0.0269,0.0134 -0.0806,0.0134 -0.0403,0.0134 -0.0806,0.0269 -0.0537,0.0134 -0.0269,0 0.0537,-0.0134 -0.0403,0.0269 -0.0403,0.0134 -0.0671,0.0269 -0.0403,0.0134 -0.0806,0.0403 -0.0268,0.0269 -0.0537,0.0537 -0.0268,0.0269 -0.0537,0.0537 -0.0269,0.0134 -0.0537,0.0537 -0.0269,0.0269 -0.0537,0.0671 -0.0134,0.0269 -0.0403,0.0537 -0.0134,0.0403 -0.0269,0.0806 -0.0403,0.0806 -0.0269,0.0403 l -5.45166,15.52246 -5.43823,-15.52246 q -0.12085,-0.30884 -0.41626,-0.45654 -0.29541,-0.14771 -0.61768,-0.0403 -0.30883,0.10742 -0.45654,0.41626 -0.1477,0.29541 -0.0268,0.61767 l 6.20361,17.68433 q 0,-0.0134 0.0269,0.0537 0.0134,0.0269 0.0134,0.0403 0.0269,0.0537 0.0537,0.094 0.0134,0.0134 0.0134,0.0134 0,0.0134 0.0134,0.0134 0.0403,0.0537 0.094,0.10743 -0.0134,-0.0134 0.0269,0.0269 0.0403,0.0269 0.0806,0.0537 0.0134,0.0134 0.0403,0.0269 0.0537,0.0269 0.10742,0.0537 0,0 0.0134,0 0,0 0.0134,0.0134 -0.0134,-0.0134 0,0 0.0403,0.0134 0.094,0.0269 0.0537,0 0.0403,0 0.0671,0.0134 0.12085,0.0134 0.0671,0 0.13428,-0.0134 -0.0134,0 0.0403,0 0.0537,-0.0134 0.0806,-0.0269 0.0269,-0.0134 0.0134,0 0.0134,-0.0134 0.0134,-0.0134 0.0134,0 0.0134,0 0.0537,-0.0269 0.10743,-0.0537 0.0134,-0.0134 0.0403,-0.0269 0.0403,-0.0268 0.0806,-0.0537 0.0403,-0.0403 0.0269,-0.0269 0.0537,-0.0537 0.094,-0.10743 0,0 0.0134,-0.0134 0,0 0,-0.0134 0.0403,-0.0403 0.0671,-0.094 0,-0.0134 0.0134,-0.0403 0.0268,-0.0671 0.0268,-0.0537 l 5.45166,-15.52246 5.45167,15.52246 q 0,-0.0134 0.0134,0.0537 0.0269,0.0269 0.0269,0.0403 0.0269,0.0537 0.0537,0.094 0,0.0134 0.0134,0.0134 0,0.0134 0,0.0134 0.0537,0.0537 0.10742,0.10743 -0.0134,-0.0134 0.0268,0.0269 0.0403,0.0269 0.0806,0.0537 0.0134,0.0134 0.0403,0.0269 0.0403,0.0269 0.10743,0.0537 0,0 0,0 0.0134,0 0.0134,0.0134 0,-0.0134 0.0134,0 0.0403,0.0134 0.094,0.0269 0.0537,0 0.0403,0 0.0671,0.0134 0.12085,0.0134 0.0671,0 0.13428,-0.0134 -0.0134,0 0.0403,0 0.0537,-0.0134 0.0806,-0.0269 0.0134,-0.0134 0.0134,0 0,-0.0134 0.0134,-0.0134 0.0134,0 0.0134,0 0.0537,-0.0269 0.094,-0.0537 0.0269,-0.0134 0.0403,-0.0269 0.0537,-0.0268 0.094,-0.0537 0.0403,-0.0403 0.0269,-0.0269 0.0537,-0.0537 0.094,-0.10743 0,0 0.0134,-0.0134 0,0 0,-0.0134 0.0403,-0.0403 0.0671,-0.094 0,-0.0134 0.0134,-0.0403 0.0269,-0.0671 0.0269,-0.0537 l 6.20361,-17.68433 q 0.10742,-0.32226 -0.0268,-0.61767 -0.14771,-0.30884 -0.46997,-0.41626 z"
         style="font-size:27.50000191px"
         id="path4724" />
      <path
         d="m 173.2204,360.86261 4.24316,-10.23193 4.24317,10.23193 -8.48633,0 z m -3.37036,6.04248 q 0.1477,0.0671 0.30884,0.0671 0.53711,0 0.73852,-0.49683 l 1.66504,-4.00146 9.80225,0 1.66504,4.00146 q 0.20141,0.49683 0.73852,0.49683 0.16114,0 0.30884,-0.0671 0.30884,-0.12085 0.42969,-0.42969 0.13428,-0.30884 0,-0.61767 l -1.86646,-4.49829 0,-0.0134 -5.43823,-13.1189 q -0.0269,-0.0671 -0.0671,-0.1477 0,0.0134 -0.0537,-0.0537 -0.0403,-0.0537 -0.0537,-0.0671 -0.0134,0 -0.0671,-0.0537 -0.0537,-0.0403 -0.0537,-0.0403 -0.13428,-0.094 -0.29541,-0.12085 0.0134,0 -0.0671,0 -0.0671,-0.0134 -0.0806,-0.0134 -0.0134,0 -0.094,0.0134 -0.0671,0 -0.0671,0 -0.1477,0.0269 -0.28198,0.12085 0.0134,-0.0134 -0.0537,0.0403 -0.0537,0.0403 -0.0671,0.0537 -0.0134,0.0134 -0.0537,0.0671 -0.0537,0.0537 -0.0537,0.0537 -0.0403,0.0806 -0.0671,0.1477 l -5.43823,13.1189 0,0.0134 -1.86646,4.49829 q -0.13428,0.30883 0,0.61767 0.12085,0.30884 0.42969,0.42969 z"
         style="font-size:27.50000191px"
         id="path4726" />
      <path
         d="m 189.06513,347.75714 q -0.33569,0 -0.57739,0.2417 -0.22828,0.22827 -0.22828,0.56396 l 0,17.60376 q 0,0.3357 0.22828,0.5774 0.2417,0.22827 0.57739,0.22827 l 9.50684,0 q 0.33569,0 0.56396,-0.22827 0.2417,-0.2417 0.2417,-0.5774 0,-0.32226 -0.2417,-0.56396 -0.22827,-0.22827 -0.56396,-0.22827 l -8.71461,0 0,-16.81153 q 0,-0.33569 -0.22827,-0.56396 -0.2417,-0.2417 -0.56396,-0.2417 z"
         style="font-size:27.50000191px"
         id="path4728" />
      <path
         d="m 202.76142,347.75714 q -0.3357,0 -0.5774,0.2417 -0.22827,0.22827 -0.22827,0.56396 l 0,17.60376 q 0,0.3357 0.22827,0.5774 0.2417,0.22827 0.5774,0.22827 l 9.50683,0 q 0.3357,0 0.56397,-0.22827 0.2417,-0.2417 0.2417,-0.5774 0,-0.32226 -0.2417,-0.56396 -0.22827,-0.22827 -0.56397,-0.22827 l -8.7146,0 0,-16.81153 q 0,-0.33569 -0.22827,-0.56396 -0.2417,-0.2417 -0.56396,-0.2417 z"
         style="font-size:27.50000191px"
         id="path4730" />
      <path
         d="m 235.87422,366.97223 q 0.33569,0 0.56396,-0.2417 0.2417,-0.22827 0.2417,-0.56397 l 0,-17.63061 q 0,-0.33569 -0.2417,-0.56397 -0.22827,-0.2417 -0.56396,-0.2417 -0.3357,0 -0.5774,0.2417 -0.22827,0.22828 -0.22827,0.56397 l 0,8.00293 -10.97046,0 0,-8.00293 q 0,-0.33569 -0.22827,-0.56397 -0.2417,-0.2417 -0.57739,-0.2417 -0.3357,0 -0.56397,0.2417 -0.2417,0.22828 -0.2417,0.56397 l 0,17.63061 q 0,0.3357 0.2417,0.56397 0.22827,0.2417 0.56397,0.2417 0.33569,0 0.57739,-0.2417 0.22827,-0.22827 0.22827,-0.56397 l 0,-8.00293 10.97046,0 0,8.00293 q 0,0.3357 0.22827,0.56397 0.2417,0.2417 0.5774,0.2417 z"
         style="font-size:27.50000191px"
         id="path4732" />
      <path
         d="m 253.31684,366.97223 q 0.3357,0 0.56397,-0.2417 0.2417,-0.22827 0.2417,-0.56397 0,-0.33569 -0.2417,-0.56396 -0.22827,-0.2417 -0.56397,-0.2417 l -9.85596,0 0,-7.22412 7.37183,0 q 0.33569,0 0.56397,-0.2417 0.2417,-0.22827 0.2417,-0.56396 0,-0.3357 -0.2417,-0.56397 -0.22828,-0.2417 -0.56397,-0.2417 l -7.37183,0 0,-7.22412 9.85596,0.0268 0,0 q 0.3357,0 0.56397,-0.22827 0.2417,-0.2417 0.2417,-0.57739 0,-0.32226 -0.2417,-0.56396 -0.22827,-0.2417 -0.56397,-0.2417 L 242.65522,347.69 q -0.32227,-0.0134 -0.56396,0.2417 -0.2417,0.22827 -0.2417,0.56397 l 0,17.67089 q 0,0.3357 0.2417,0.56397 0.22827,0.2417 0.56396,0.2417 l 10.66162,0 z"
         style="font-size:27.50000191px"
         id="path4734" />
      <path
         d="m 259.76215,348.57623 q 0,-0.33569 -0.2417,-0.56396 -0.22827,-0.2417 -0.56396,-0.2417 -0.33569,0 -0.56397,0.2417 -0.24169,0.22827 -0.24169,0.56396 l 0,17.59033 q 0,0.3357 0.24169,0.56397 0.22828,0.2417 0.56397,0.2417 0.33569,0 0.56396,-0.2417 0.2417,-0.22827 0.2417,-0.56397 l 0,-17.59033 z"
         style="font-size:27.50000191px"
         id="path4736" />
      <path
         d="m 273.727,366.97223 q -3.98804,0 -6.80786,-2.83325 -2.83326,-2.81983 -2.83326,-6.80786 0,-3.98804 2.83326,-6.82129 2.81982,-2.81983 6.80786,-2.81983 3.27637,0 5.86792,1.98731 0.26855,0.21484 0.30884,0.53711 0.0537,0.33569 -0.16114,0.60424 -0.20141,0.26856 -0.53711,0.30884 -0.32226,0.0403 -0.59082,-0.16113 -2.16186,-1.66504 -4.88769,-1.66504 -3.31665,0 -5.66651,2.36328 -2.34985,2.34985 -2.34985,5.66651 0,3.31665 2.34985,5.6665 2.34986,2.34985 5.66651,2.34985 3.11523,0 5.39795,-2.0813 0.25512,-0.22827 0.59082,-0.21484 0.33569,0.0134 0.56396,0.26856 0.21485,0.24169 0.20142,0.57739 -0.0134,0.33569 -0.25513,0.56396 -2.76611,2.51099 -6.49902,2.51099 z m 6.10962,0 q -0.3357,0 -0.57739,-0.2417 -0.22828,-0.22827 -0.22828,-0.56397 l 0,-8.51318 -6.74072,0 q -0.33569,0 -0.57739,-0.22827 -0.2417,-0.2417 -0.2417,-0.57739 0,-0.3357 0.2417,-0.56397 0.2417,-0.2417 0.57739,-0.2417 l 7.54639,0 q 0.33569,0 0.57739,0.2417 0.22827,0.22827 0.22827,0.56397 l 0,9.31884 q 0,0.3357 -0.22827,0.56397 -0.2417,0.2417 -0.57739,0.2417 z"
         style="font-size:27.50000191px"
         id="path4738" />
      <path
         d="m 298.90401,366.97223 q 0.33569,0 0.56396,-0.2417 0.2417,-0.22827 0.2417,-0.56397 l 0,-17.63061 q 0,-0.33569 -0.2417,-0.56397 -0.22827,-0.2417 -0.56396,-0.2417 -0.3357,0 -0.57739,0.2417 -0.22828,0.22828 -0.22828,0.56397 l 0,8.00293 -10.97046,0 0,-8.00293 q 0,-0.33569 -0.22827,-0.56397 -0.2417,-0.2417 -0.57739,-0.2417 -0.33569,0 -0.56396,0.2417 -0.2417,0.22828 -0.2417,0.56397 l 0,17.63061 q 0,0.3357 0.2417,0.56397 0.22827,0.2417 0.56396,0.2417 0.33569,0 0.57739,-0.2417 0.22827,-0.22827 0.22827,-0.56397 l 0,-8.00293 10.97046,0 0,8.00293 q 0,0.3357 0.22828,0.56397 0.24169,0.2417 0.57739,0.2417 z"
         style="font-size:27.50000191px"
         id="path4740" />
      <path
         d="m 309.02852,366.16656 q 0,0.3357 0.22827,0.5774 0.2417,0.22827 0.56397,0.22827 0.33569,0 0.57739,-0.22827 0.22827,-0.2417 0.22827,-0.5774 l 0,-16.8518 5.30396,0 q 0.33569,0 0.56396,-0.22827 0.2417,-0.22828 0.2417,-0.56397 0,-0.33569 -0.2417,-0.56396 -0.22827,-0.2417 -0.56396,-0.2417 l -12.20582,0 q -0.33569,0 -0.57739,0.2417 -0.22827,0.22827 -0.22827,0.56396 0,0.33569 0.22827,0.56397 0.2417,0.22827 0.57739,0.22827 l 5.30396,0 0,16.8518 z"
         style="font-size:27.50000191px"
         id="path4742" />
    </g>
  </g>
</svg>
